<?xml version="1.0" encoding="UTF-8" standalone="no"?>
<!-- Created with Inkscape (http://www.inkscape.org/) -->

<svg
   xmlns:dc="http://purl.org/dc/elements/1.1/"
   xmlns:cc="http://creativecommons.org/ns#"
   xmlns:rdf="http://www.w3.org/1999/02/22-rdf-syntax-ns#"
   xmlns:svg="http://www.w3.org/2000/svg"
   xmlns="http://www.w3.org/2000/svg"
   xmlns:xlink="http://www.w3.org/1999/xlink"
   xmlns:sodipodi="http://sodipodi.sourceforge.net/DTD/sodipodi-0.dtd"
   xmlns:inkscape="http://www.inkscape.org/namespaces/inkscape"
   width="744.09448819"
   height="1052.3622047"
   id="svg5901"
   version="1.1"
   inkscape:version="0.47 r22583"
   sodipodi:docname="icons.svg">
  <defs
     id="defs5903">
    <inkscape:perspective
       sodipodi:type="inkscape:persp3d"
       inkscape:vp_x="0 : 526.18109 : 1"
       inkscape:vp_y="0 : 1000 : 0"
       inkscape:vp_z="744.09448 : 526.18109 : 1"
       inkscape:persp3d-origin="372.04724 : 350.78739 : 1"
       id="perspective5909" />
    <inkscape:perspective
       sodipodi:type="inkscape:persp3d"
       inkscape:vp_x="0 : 0.5 : 1"
       inkscape:vp_y="0 : 1000 : 0"
       inkscape:vp_z="1 : 0.5 : 1"
       inkscape:persp3d-origin="0.5 : 0.33333333 : 1"
       id="perspective5280" />
    <clipPath
       clipPathUnits="userSpaceOnUse"
       id="clipPath5304">
      <path
         d="M 0,792 612,792 612,0 0,0 0,792 z"
         id="path5306" />
    </clipPath>
    <inkscape:perspective
       sodipodi:type="inkscape:persp3d"
       inkscape:vp_x="0 : 88.58268 : 1"
       inkscape:vp_y="0 : 1000 : 0"
       inkscape:vp_z="318.89764 : 88.58268 : 1"
       inkscape:persp3d-origin="159.44882 : 59.05512 : 1"
       id="perspective4866" />
    <linearGradient
       id="linearGradient6042">
      <stop
         style="stop-color:#000000;stop-opacity:0.49484536;"
         offset="0"
         id="stop6044" />
      <stop
         style="stop-color:#000000;stop-opacity:0;"
         offset="1"
         id="stop6046" />
    </linearGradient>
    <linearGradient
       id="linearGradient6018">
      <stop
         style="stop-color:#000000;stop-opacity:1;"
         offset="0"
         id="stop6020" />
      <stop
         style="stop-color:#000000;stop-opacity:0.36082473;"
         offset="1"
         id="stop6022" />
    </linearGradient>
    <linearGradient
       id="linearGradient6026">
      <stop
         style="stop-color:#ffffff;stop-opacity:1;"
         offset="0"
         id="stop6028" />
      <stop
         style="stop-color:#ffffff;stop-opacity:0;"
         offset="1"
         id="stop6030" />
    </linearGradient>
    <linearGradient
       id="linearGradient6066">
      <stop
         style="stop-color:#000000;stop-opacity:1;"
         offset="0"
         id="stop6068" />
      <stop
         style="stop-color:#a95e5e;stop-opacity:1;"
         offset="1"
         id="stop6070" />
    </linearGradient>
    <inkscape:perspective
       sodipodi:type="inkscape:persp3d"
       inkscape:vp_x="0 : 0.5 : 1"
       inkscape:vp_y="0 : 1000 : 0"
       inkscape:vp_z="1 : 0.5 : 1"
       inkscape:persp3d-origin="0.5 : 0.33333333 : 1"
       id="perspective4078" />
    <inkscape:perspective
       sodipodi:type="inkscape:persp3d"
       inkscape:vp_x="0 : 0.5 : 1"
       inkscape:vp_y="0 : 1000 : 0"
       inkscape:vp_z="1 : 0.5 : 1"
       inkscape:persp3d-origin="0.5 : 0.33333333 : 1"
       id="perspective3963" />
    <inkscape:perspective
       id="perspective10"
       inkscape:persp3d-origin="372.04724 : 350.78739 : 1"
       inkscape:vp_z="744.09448 : 526.18109 : 1"
       inkscape:vp_y="0 : 1000 : 0"
       inkscape:vp_x="0 : 526.18109 : 1"
       sodipodi:type="inkscape:persp3d" />
    <inkscape:perspective
       id="perspective3032"
       inkscape:persp3d-origin="0.5 : 0.33333333 : 1"
       inkscape:vp_z="1 : 0.5 : 1"
       inkscape:vp_y="0 : 1000 : 0"
       inkscape:vp_x="0 : 0.5 : 1"
       sodipodi:type="inkscape:persp3d" />
    <inkscape:perspective
       id="perspective4030"
       inkscape:persp3d-origin="50 : 33.333333 : 1"
       inkscape:vp_z="100 : 50 : 1"
       inkscape:vp_y="0 : 1000 : 0"
       inkscape:vp_x="0 : 50 : 1"
       sodipodi:type="inkscape:persp3d" />
    <inkscape:perspective
       id="perspective4113"
       inkscape:persp3d-origin="50 : 33.333333 : 1"
       inkscape:vp_z="100 : 50 : 1"
       inkscape:vp_y="0 : 1000 : 0"
       inkscape:vp_x="0 : 50 : 1"
       sodipodi:type="inkscape:persp3d" />
    <inkscape:perspective
       id="perspective4256"
       inkscape:persp3d-origin="50 : 33.333333 : 1"
       inkscape:vp_z="100 : 50 : 1"
       inkscape:vp_y="0 : 1000 : 0"
       inkscape:vp_x="0 : 50 : 1"
       sodipodi:type="inkscape:persp3d" />
    <inkscape:perspective
       id="perspective4340"
       inkscape:persp3d-origin="0.5 : 0.33333333 : 1"
       inkscape:vp_z="1 : 0.5 : 1"
       inkscape:vp_y="0 : 1000 : 0"
       inkscape:vp_x="0 : 0.5 : 1"
       sodipodi:type="inkscape:persp3d" />
    <inkscape:perspective
       sodipodi:type="inkscape:persp3d"
       inkscape:vp_x="0 : 526.18109 : 1"
       inkscape:vp_y="0 : 1000 : 0"
       inkscape:vp_z="744.09448 : 526.18109 : 1"
       inkscape:persp3d-origin="372.04724 : 350.78739 : 1"
       id="perspective10-9" />
    <inkscape:perspective
       id="perspective3963-3"
       inkscape:persp3d-origin="0.5 : 0.33333333 : 1"
       inkscape:vp_z="1 : 0.5 : 1"
       inkscape:vp_y="0 : 1000 : 0"
       inkscape:vp_x="0 : 0.5 : 1"
       sodipodi:type="inkscape:persp3d" />
    <inkscape:perspective
       id="perspective4078-2"
       inkscape:persp3d-origin="0.5 : 0.33333333 : 1"
       inkscape:vp_z="1 : 0.5 : 1"
       inkscape:vp_y="0 : 1000 : 0"
       inkscape:vp_x="0 : 0.5 : 1"
       sodipodi:type="inkscape:persp3d" />
    <linearGradient
       id="linearGradient6066-7">
      <stop
         id="stop6068-9"
         offset="0"
         style="stop-color:#000000;stop-opacity:1;" />
      <stop
         id="stop6070-0"
         offset="1"
         style="stop-color:#a95e5e;stop-opacity:1;" />
    </linearGradient>
    <linearGradient
       id="linearGradient6026-2">
      <stop
         id="stop6028-7"
         offset="0"
         style="stop-color:#ffffff;stop-opacity:1;" />
      <stop
         id="stop6030-3"
         offset="1"
         style="stop-color:#ffffff;stop-opacity:0;" />
    </linearGradient>
    <linearGradient
       id="linearGradient6018-0">
      <stop
         id="stop6020-5"
         offset="0"
         style="stop-color:#000000;stop-opacity:1;" />
      <stop
         id="stop6022-2"
         offset="1"
         style="stop-color:#000000;stop-opacity:0.36082473;" />
    </linearGradient>
    <linearGradient
       id="linearGradient6042-8">
      <stop
         id="stop6044-3"
         offset="0"
         style="stop-color:#000000;stop-opacity:0.49484536;" />
      <stop
         id="stop6046-9"
         offset="1"
         style="stop-color:#000000;stop-opacity:0;" />
    </linearGradient>
    <inkscape:perspective
       id="perspective4866-4"
       inkscape:persp3d-origin="159.44882 : 59.05512 : 1"
       inkscape:vp_z="318.89764 : 88.58268 : 1"
       inkscape:vp_y="0 : 1000 : 0"
       inkscape:vp_x="0 : 88.58268 : 1"
       sodipodi:type="inkscape:persp3d" />
    <radialGradient
       inkscape:collect="always"
       xlink:href="#linearGradient6066-7"
       id="radialGradient5086"
       gradientUnits="userSpaceOnUse"
       gradientTransform="matrix(0.6061626,0,0,0.5863238,-534.63348,-346.08612)"
       cx="91.871078"
       cy="319.3927"
       fx="91.871078"
       fy="319.3927"
       r="60.107999" />
    <linearGradient
       inkscape:collect="always"
       xlink:href="#linearGradient6026-2"
       id="linearGradient5088"
       gradientUnits="userSpaceOnUse"
       gradientTransform="matrix(0.6196998,0,0,0.6196998,-701.06348,-389.83133)"
       x1="304.21442"
       y1="327.63007"
       x2="389.11099"
       y2="342.46527" />
    <linearGradient
       inkscape:collect="always"
       xlink:href="#linearGradient6018-0"
       id="linearGradient5090"
       gradientUnits="userSpaceOnUse"
       gradientTransform="matrix(0.6196998,0,0,0.6196998,-705.00078,-389.22558)"
       x1="392.22586"
       y1="414.96759"
       x2="386.82846"
       y2="353.23364" />
    <linearGradient
       inkscape:collect="always"
       xlink:href="#linearGradient6042-8"
       id="linearGradient5092"
       gradientUnits="userSpaceOnUse"
       gradientTransform="matrix(0.6196998,0,0,0.6196998,-705.00078,-389.22558)"
       x1="299.83704"
       y1="382.19601"
       x2="335.40619"
       y2="356.78146" />
    <clipPath
       id="clipPath5304-0"
       clipPathUnits="userSpaceOnUse">
      <path
         id="path5306-2"
         d="M 0,792 612,792 612,0 0,0 0,792 z" />
    </clipPath>
    <inkscape:perspective
       id="perspective5280-8"
       inkscape:persp3d-origin="0.5 : 0.33333333 : 1"
       inkscape:vp_z="1 : 0.5 : 1"
       inkscape:vp_y="0 : 1000 : 0"
       inkscape:vp_x="0 : 0.5 : 1"
       sodipodi:type="inkscape:persp3d" />
    <inkscape:perspective
       id="perspective5909-3"
       inkscape:persp3d-origin="372.04724 : 350.78739 : 1"
       inkscape:vp_z="744.09448 : 526.18109 : 1"
       inkscape:vp_y="0 : 1000 : 0"
       inkscape:vp_x="0 : 526.18109 : 1"
       sodipodi:type="inkscape:persp3d" />
    <clipPath
       id="clipPath5836"
       clipPathUnits="userSpaceOnUse">
      <path
         id="path5838"
         d="M 0,640 528,640 528,0 0,0 0,640 z" />
    </clipPath>
    <inkscape:perspective
       id="perspective5828"
       inkscape:persp3d-origin="0.5 : 0.33333333 : 1"
       inkscape:vp_z="1 : 0.5 : 1"
       inkscape:vp_y="0 : 1000 : 0"
       inkscape:vp_x="0 : 0.5 : 1"
       sodipodi:type="inkscape:persp3d" />
    <inkscape:perspective
       sodipodi:type="inkscape:persp3d"
       inkscape:vp_x="0 : 526.18109 : 1"
       inkscape:vp_y="0 : 1000 : 0"
       inkscape:vp_z="744.09448 : 526.18109 : 1"
       inkscape:persp3d-origin="372.04724 : 350.78739 : 1"
       id="perspective10-3" />
    <inkscape:perspective
       id="perspective3963-1"
       inkscape:persp3d-origin="0.5 : 0.33333333 : 1"
       inkscape:vp_z="1 : 0.5 : 1"
       inkscape:vp_y="0 : 1000 : 0"
       inkscape:vp_x="0 : 0.5 : 1"
       sodipodi:type="inkscape:persp3d" />
    <inkscape:perspective
       id="perspective4078-7"
       inkscape:persp3d-origin="0.5 : 0.33333333 : 1"
       inkscape:vp_z="1 : 0.5 : 1"
       inkscape:vp_y="0 : 1000 : 0"
       inkscape:vp_x="0 : 0.5 : 1"
       sodipodi:type="inkscape:persp3d" />
    <linearGradient
       id="linearGradient6066-8">
      <stop
         id="stop6068-1"
         offset="0"
         style="stop-color:#000000;stop-opacity:1;" />
      <stop
         id="stop6070-4"
         offset="1"
         style="stop-color:#a95e5e;stop-opacity:1;" />
    </linearGradient>
    <linearGradient
       id="linearGradient6026-6">
      <stop
         id="stop6028-5"
         offset="0"
         style="stop-color:#ffffff;stop-opacity:1;" />
      <stop
         id="stop6030-5"
         offset="1"
         style="stop-color:#ffffff;stop-opacity:0;" />
    </linearGradient>
    <linearGradient
       id="linearGradient6018-7">
      <stop
         id="stop6020-2"
         offset="0"
         style="stop-color:#000000;stop-opacity:1;" />
      <stop
         id="stop6022-3"
         offset="1"
         style="stop-color:#000000;stop-opacity:0.36082473;" />
    </linearGradient>
    <linearGradient
       id="linearGradient6042-9">
      <stop
         id="stop6044-9"
         offset="0"
         style="stop-color:#000000;stop-opacity:0.49484536;" />
      <stop
         id="stop6046-91"
         offset="1"
         style="stop-color:#000000;stop-opacity:0;" />
    </linearGradient>
    <inkscape:perspective
       id="perspective4866-3"
       inkscape:persp3d-origin="159.44882 : 59.05512 : 1"
       inkscape:vp_z="318.89764 : 88.58268 : 1"
       inkscape:vp_y="0 : 1000 : 0"
       inkscape:vp_x="0 : 88.58268 : 1"
       sodipodi:type="inkscape:persp3d" />
    <radialGradient
       inkscape:collect="always"
       xlink:href="#linearGradient6066-8"
       id="radialGradient5086-0"
       gradientUnits="userSpaceOnUse"
       gradientTransform="matrix(0.6061626,0,0,0.5863238,-534.63348,-346.08612)"
       cx="91.871078"
       cy="319.3927"
       fx="91.871078"
       fy="319.3927"
       r="60.107999" />
    <linearGradient
       inkscape:collect="always"
       xlink:href="#linearGradient6026-6"
       id="linearGradient5088-7"
       gradientUnits="userSpaceOnUse"
       gradientTransform="matrix(0.6196998,0,0,0.6196998,-701.06348,-389.83133)"
       x1="304.21442"
       y1="327.63007"
       x2="389.11099"
       y2="342.46527" />
    <linearGradient
       inkscape:collect="always"
       xlink:href="#linearGradient6018-7"
       id="linearGradient5090-2"
       gradientUnits="userSpaceOnUse"
       gradientTransform="matrix(0.6196998,0,0,0.6196998,-705.00078,-389.22558)"
       x1="392.22586"
       y1="414.96759"
       x2="386.82846"
       y2="353.23364" />
    <linearGradient
       inkscape:collect="always"
       xlink:href="#linearGradient6042-9"
       id="linearGradient5092-6"
       gradientUnits="userSpaceOnUse"
       gradientTransform="matrix(0.6196998,0,0,0.6196998,-705.00078,-389.22558)"
       x1="299.83704"
       y1="382.19601"
       x2="335.40619"
       y2="356.78146" />
    <clipPath
       id="clipPath5304-5"
       clipPathUnits="userSpaceOnUse">
      <path
         id="path5306-7"
         d="M 0,792 612,792 612,0 0,0 0,792 z" />
    </clipPath>
    <inkscape:perspective
       id="perspective5280-6"
       inkscape:persp3d-origin="0.5 : 0.33333333 : 1"
       inkscape:vp_z="1 : 0.5 : 1"
       inkscape:vp_y="0 : 1000 : 0"
       inkscape:vp_x="0 : 0.5 : 1"
       sodipodi:type="inkscape:persp3d" />
    <inkscape:perspective
       id="perspective5909-8"
       inkscape:persp3d-origin="372.04724 : 350.78739 : 1"
       inkscape:vp_z="744.09448 : 526.18109 : 1"
       inkscape:vp_y="0 : 1000 : 0"
       inkscape:vp_x="0 : 526.18109 : 1"
       sodipodi:type="inkscape:persp3d" />
  </defs>
  <sodipodi:namedview
     id="base"
     pagecolor="#ffffff"
     bordercolor="#ffffff"
     borderopacity="0.0"
     inkscape:pageopacity="0.0"
     inkscape:pageshadow="0"
     inkscape:zoom="0.58772822"
     inkscape:cx="266.47093"
     inkscape:cy="492.75323"
     inkscape:document-units="px"
     inkscape:current-layer="layer1"
     showgrid="false"
     inkscape:window-width="1008"
     inkscape:window-height="645"
     inkscape:window-x="24"
     inkscape:window-y="20"
     inkscape:window-maximized="0"
     showguides="true"
     inkscape:guide-bbox="true">
    <sodipodi:guide
       orientation="0,1"
       position="915.38909,275.63761"
       id="guide11281" />
  </sodipodi:namedview>
  <metadata
     id="metadata5906">
    <rdf:RDF>
      <cc:Work
         rdf:about="">
        <dc:format>image/svg+xml</dc:format>
        <dc:type
           rdf:resource="http://purl.org/dc/dcmitype/StillImage" />
        <dc:title></dc:title>
      </cc:Work>
    </rdf:RDF>
  </metadata>
  <g
     inkscape:label="Layer 1"
     inkscape:groupmode="layer"
     id="layer1">
    <path
       sodipodi:type="arc"
       style="opacity:0.78761057999999995;fill:#798aa9;fill-opacity:1;stroke:none"
       id="path4350"
       sodipodi:cx="34.981632"
       sodipodi:cy="656.37012"
       sodipodi:rx="15.951624"
       sodipodi:ry="15.951624"
       d="m 19.030965,656.19544 a 15.951624,15.951624 0 1 1 -9.57e-4,0.17468"
       sodipodi:start="3.1525433"
       sodipodi:end="9.424778"
       sodipodi:open="true"
       transform="translate(82.465036,-0.55970609)"
       inkscape:export-filename="/Users/tonyg 1/Documents/work/Tony Gaitatzis/web template example/tonygaitatzis.com/assets/img/icon_linkedin.png"
       inkscape:export-xdpi="90.27282"
       inkscape:export-ydpi="90.27282" />
    <path
       sodipodi:type="arc"
       style="opacity:0.78761057999999984;fill:#798aa9;fill-opacity:1;stroke:none"
       id="path4346"
       sodipodi:cx="34.981632"
       sodipodi:cy="656.37012"
       sodipodi:rx="15.951624"
       sodipodi:ry="15.951624"
       d="m 19.030965,656.19544 a 15.951624,15.951624 0 1 1 -9.57e-4,0.17468"
       sodipodi:start="3.1525433"
       sodipodi:end="9.424778"
       sodipodi:open="true"
       transform="translate(0.55970609,-0.55970609)"
       inkscape:export-filename="/Users/tonyg 1/Documents/work/Tony Gaitatzis/web template example/tonygaitatzis.com/assets/img/icon_facebook.png"
       inkscape:export-xdpi="90.27282"
       inkscape:export-ydpi="90.27282" />
    <path
       d="m 32.469882,650.43939 c 0,0.47777 0,2.61028 0,2.61028 h -1.912368 v 3.19191 h 1.912368 v 9.48516 h 3.92859 v -9.48495 h 2.635983 c 0,0 0.246893,-1.53044 0.366547,-3.20391 -0.343165,0 -2.987784,0 -2.987784,0 0,0 0,-1.85698 0,-2.18244 0,-0.3261 0.428272,-0.7649 0.851697,-0.7649 0.422582,0 1.314305,0 2.140301,0 0,-0.4346 0,-1.93618 0,-3.32295 -1.102803,0 -2.35707,0 -2.910051,0 -4.122397,-2.1e-4 -4.025283,3.19486 -4.025283,3.6718 z"
       id="Facebook"
       style="fill:#ffffff;fill-opacity:1"
       inkscape:export-filename="/Users/tonyg 1/Documents/work/Tony Gaitatzis/web template example/tonygaitatzis.com/assets/img/icon_facebook.png"
       inkscape:export-xdpi="90.27282"
       inkscape:export-ydpi="90.27282" />
    <path
       d="m 126.71676,656.92715 v 6.2828 h -3.64244 v -5.8621 c 0,-1.47265 -0.52683,-2.47758 -1.84539,-2.47758 -1.00644,0 -1.6054,0.67732 -1.8688,1.33235 -0.0961,0.23434 -0.12085,0.56025 -0.12085,0.88824 v 6.11909 h -3.6436 c 0,0 0.0491,-9.92846 0,-10.95719 h 3.6434 v 1.5531 c -0.008,0.0117 -0.017,0.0242 -0.024,0.0355 h 0.024 v -0.0355 c 0.48396,-0.74548 1.34841,-1.81046 3.2833,-1.81046 2.39734,0 4.19438,1.56612 4.19438,4.93175 z m -14.93252,-9.95621 c -1.24643,0 -2.06178,0.81761 -2.06178,1.89279 0,1.05175 0.79174,1.8941 2.01344,1.8941 h 0.0243 c 1.27061,0 2.06084,-0.84216 2.06084,-1.8941 -0.024,-1.07518 -0.79023,-1.89279 -2.03685,-1.89279 z m -1.84539,16.23901 h 3.64226 v -10.95719 h -3.64226 v 10.95719 z"
       id="LinkedIn"
       style="fill:#ffffff;fill-opacity:1"
       inkscape:export-filename="/Users/tonyg 1/Documents/work/Tony Gaitatzis/web template example/tonygaitatzis.com/assets/img/icon_linkedin.png"
       inkscape:export-xdpi="90.27282"
       inkscape:export-ydpi="90.27282" />
    <path
       transform="translate(40.41078,-0.55970609)"
       sodipodi:open="true"
       sodipodi:end="9.424778"
       sodipodi:start="3.1525433"
       d="m 19.030965,656.19544 a 15.951624,15.951624 0 1 1 -9.57e-4,0.17468"
       sodipodi:ry="15.951624"
       sodipodi:rx="15.951624"
       sodipodi:cy="656.37012"
       sodipodi:cx="34.981632"
       id="path4348"
       style="opacity:0.78761057999999995;fill:#798aa9;fill-opacity:1;stroke:none"
       sodipodi:type="arc"
       inkscape:export-filename="/Users/tonyg 1/Documents/work/Tony Gaitatzis/web template example/tonygaitatzis.com/assets/img/icon_twitter.png"
       inkscape:export-xdpi="90.27282"
       inkscape:export-ydpi="90.27282" />
    <path
       d="m 79.446568,660.34542 h -4.045789 c -0.562381,0 -1.040597,-0.19675 -1.433554,-0.59208 -0.394783,-0.39568 -0.58989,-0.8739 -0.58989,-1.43901 v -1.43974 h 5.764814 c 0.519934,0 0.967726,-0.18692 1.339732,-0.55802 0.372006,-0.37419 0.558555,-0.82143 0.558555,-1.34192 0,-0.52229 -0.186734,-0.969 -0.559648,-1.34191 -0.37328,-0.37201 -0.822351,-0.55855 -1.344466,-0.55855 h -5.758987 v -2.97477 c 0,-0.56293 -0.20076,-1.0448 -0.599365,-1.44631 -0.396968,-0.40225 -0.877,-0.60392 -1.434647,-0.60392 -0.573132,0 -1.061183,0.19876 -1.458145,0.59207 -0.398241,0.3946 -0.597178,0.88065 -0.597178,1.45998 v 8.21436 c 0,1.68952 0.597178,3.13291 1.792078,4.33091 1.195994,1.20017 2.637561,1.79863 4.323067,1.79863 h 4.044696 c 0.561657,0 1.043697,-0.20167 1.444668,-0.60392 0.401336,-0.40024 0.601546,-0.88319 0.601546,-1.44557 0,-0.56257 -0.20021,-1.04461 -0.601546,-1.44667 -0.401156,-0.40115 -0.883926,-0.60356 -1.445941,-0.60356 z"
       id="Twitter"
       style="stroke:none;stroke-opacity:1;fill:#ffffff;fill-opacity:1"
       inkscape:export-filename="/Users/tonyg 1/Documents/work/Tony Gaitatzis/web template example/tonygaitatzis.com/assets/img/icon_twitter.png"
       inkscape:export-xdpi="90.27282"
       inkscape:export-ydpi="90.27282" />
    <g
       id="g5966"
       transform="matrix(4.0725708,0,0,-4.0725708,22.827601,802.78569)"
       inkscape:export-filename="/Users/tonyg 1/Documents/work/Tony Gaitatzis/web template example/tonygaitatzis.com/assets/img/icon_flame.png"
       inkscape:export-xdpi="66.271843"
       inkscape:export-ydpi="66.271843">
      <path
         d="m 0,0 c -5.994,-0.17 -2.166,5.682 -2.801,4.5 -0.083,-0.156 -0.528,-1.531 1.596,-2.656 -1.043,1.3 0.853,2.854 1.557,3.573 0,-1.844 0.748,-3.573 0.748,-3.573 0,0 1.211,0.711 2.083,3.271 C 3.938,1.84 3.347,0.095 0,0 m 5.399,8.423 c 0,0 -0.711,-0.043 -2.44,-0.994 L 2.85,7.584 c 0.052,1.299 0.184,2.88 0.549,3.839 -0.215,-0.118 -1.01,-0.79 -1.933,-1.481 -0.475,1.134 -0.631,3.306 -0.067,4.481 -4.391,-3.149 -6.999,-7.661 -7,-10.485 -0.002,-2.199 -0.32,-5.515 5,-5.515 8.28,0 4,6 6,10"
         style="fill:#343f53;fill-opacity:1;fill-rule:nonzero;stroke:none"
         id="path5968" />
    </g>
    <g
       id="g5982"
       transform="matrix(4.0725708,0,0,-4.0725708,129.55129,768.72457)"
       style="fill:#343f53;fill-opacity:1"
       inkscape:export-filename="/Users/tonyg 1/Documents/work/Tony Gaitatzis/web template example/tonygaitatzis.com/assets/img/icon_heart.png"
       inkscape:export-xdpi="75.468239"
       inkscape:export-ydpi="75.468239">
      <path
         d="m 0,0 c -0.188,-2.033 -2.045,-4.368 -5.523,-6.954 -3.479,2.585 -5.334,4.921 -5.524,6.954 l 0,0.676 c 0.152,1.618 1.147,2.299 1.787,2.361 0.174,0.018 0.338,0.026 0.49,0.026 0.918,0 1.303,-0.282 2.063,-1.187 l 1.184,-1.411 1.185,1.411 c 0.76,0.905 1.143,1.187 2.063,1.187 0.15,0 0.314,-0.008 0.49,-0.026 C -1.146,2.975 -0.15,2.294 0,0.676 L 0,0 z m -1.635,4.576 c -0.228,0.022 -0.441,0.033 -0.64,0.033 -1.602,0 -2.37,-0.691 -3.248,-1.739 -0.879,1.048 -1.647,1.739 -3.247,1.739 -0.201,0 -0.414,-0.011 -0.64,-0.033 -1.387,-0.135 -2.988,-1.403 -3.182,-3.834 l 0,-0.808 c 0.182,-2.327 1.938,-5.196 7.069,-8.795 5.132,3.599 6.888,6.468 7.07,8.795 l 0,0.808 C 1.352,3.173 -0.25,4.441 -1.635,4.576"
         style="fill:#343f53;fill-opacity:1;fill-rule:nonzero;stroke:none"
         id="path5984" />
    </g>
    <g
       id="g6058"
       transform="matrix(4.0725708,0,0,-4.0725708,502.74407,770.72457)"
       inkscape:export-filename="/Users/tonyg 1/Documents/work/Tony Gaitatzis/web template example/tonygaitatzis.com/assets/img/icon_pallate.png"
       inkscape:export-xdpi="66.297188"
       inkscape:export-ydpi="66.297188">
      <path
         d="M 0,0 C -0.965,0 -1.75,0.785 -1.75,1.75 -1.75,2.715 -0.965,3.5 0,3.5 0.965,3.5 1.75,2.715 1.75,1.75 1.75,0.785 0.965,0 0,0 m 1,-3 c -0.414,0 -0.75,0.336 -0.75,0.75 0,0.414 0.336,0.75 0.75,0.75 0.414,0 0.75,-0.336 0.75,-0.75 C 1.75,-2.664 1.414,-3 1,-3 m -3,-3 c -0.965,0 -1.75,0.785 -1.75,1.75 0,0.965 0.785,1.75 1.75,1.75 0.965,0 1.75,-0.785 1.75,-1.75 C -0.25,-5.215 -1.035,-6 -2,-6 M -5.25,2.75 C -5.25,3.439 -4.689,4 -4,4 -3.311,4 -2.75,3.439 -2.75,2.75 -2.75,2.061 -3.311,1.5 -4,1.5 -4.689,1.5 -5.25,2.061 -5.25,2.75 M -7.5,-1 c -0.689,0 -1.25,0.561 -1.25,1.25 0,0.689 0.561,1.25 1.25,1.25 0.689,0 1.25,-0.561 1.25,-1.25 C -6.25,-0.439 -6.811,-1 -7.5,-1 m 5,7.25 c -6,0 -9,-6 -9,-10 0,-1 2,-3 3,0 0.447,1.342 3,1 3,-1 0,-2.236 1,-4 3,-4 6,0 7,5 7,8 0,3 -1,7 -7,7"
         style="fill:#343f53;fill-opacity:1;fill-rule:nonzero;stroke:none"
         id="path6060" />
    </g>
    <g
       id="g6308"
       transform="matrix(4.0725708,0,0,-4.0725708,232.48351,793.72459)"
       style="fill:#343f53;fill-opacity:1"
       inkscape:export-filename="/Users/tonyg 1/Documents/work/Tony Gaitatzis/web template example/tonygaitatzis.com/assets/img/icon_person.png"
       inkscape:export-xdpi="66.710754"
       inkscape:export-ydpi="66.710754">
      <path
         d="m 0,0 c -0.467,0.729 -2.037,1.182 -3.59,1.829 -1.554,0.648 -1.922,0.872 -1.922,0.872 l -0.014,1.49 c 0,0 0.582,0.448 0.762,1.85 0.364,-0.105 0.746,0.543 0.767,0.885 0.02,0.329 -0.05,1.242 -0.494,1.15 0.09,0.688 0.156,1.306 0.124,1.633 -0.115,1.197 -1.294,2.46 -3.107,2.46 -1.812,0 -2.991,-1.263 -3.107,-2.46 -0.032,-0.327 0.034,-0.945 0.124,-1.633 -0.443,0.092 -0.514,-0.821 -0.494,-1.15 0.021,-0.342 0.403,-0.99 0.767,-0.885 0.181,-1.402 0.763,-1.85 0.763,-1.85 l -0.015,-1.49 c 0,0 -0.368,-0.224 -1.921,-0.872 -1.554,-0.647 -3.123,-1.1 -3.591,-1.829 -0.419,-0.652 -0.293,-3.789 -0.293,-3.789 l 15.534,0 c 0,0 0.126,3.137 -0.293,3.789"
         style="fill:#343f53;fill-opacity:1;fill-rule:nonzero;stroke:none"
         id="path6310" />
    </g>
    <g
       id="g10719"
       transform="matrix(3.2580566,0,0,3.2580566,-1308.7717,-986.48037)"
       style="fill:#343f53;fill-opacity:1"
       inkscape:export-filename="/Users/tonyg 1/Documents/work/Tony Gaitatzis/web template example/tonygaitatzis.com/assets/img/icon_chart.png"
       inkscape:export-xdpi="66.941948"
       inkscape:export-ydpi="66.941948">
      <path
         id="path6398"
         style="fill:#343f53;fill-opacity:1;fill-rule:nonzero;stroke:none"
         d="m 513.66082,549.93303 3.75,0 0,-3.75 -3.75,0 0,3.75 z" />
      <path
         id="path6400"
         style="fill:#343f53;fill-opacity:1;fill-rule:nonzero;stroke:none"
         d="m 518.66082,549.93303 3.75,0 0,-6.25 -3.75,0 0,6.25 z" />
      <path
         id="path6402"
         style="fill:#343f53;fill-opacity:1;fill-rule:nonzero;stroke:none"
         d="m 523.66082,549.93303 3.75,0 0,-8.75 -3.75,0 0,8.75 z" />
      <path
         id="path6404"
         style="fill:#343f53;fill-opacity:1;fill-rule:nonzero;stroke:none"
         d="m 528.66082,549.93303 3.75,0 0,-11.25 -3.75,0 0,11.25 z" />
      <g
         transform="matrix(1.25,0,0,-1.25,529.65207,534.53503)"
         id="g6406"
         style="fill:#343f53;fill-opacity:1">
        <path
           id="path6408"
           style="fill:#343f53;fill-opacity:1;fill-rule:nonzero;stroke:none"
           d="m 0,0 -2.959,0 -3.887,-2.915 -2.015,1.008 -4.932,-4.11 0,-1.301 5.068,4.224 1.985,-0.992 4.113,3.086 3.041,0 1.793,1.792 0,1.415 L 0,0 z" />
      </g>
    </g>
    <g
       id="g10745"
       transform="matrix(3.2580566,0,0,3.2580566,-531.53789,-1430.6596)"
       style="fill:#343f53;fill-opacity:1"
       inkscape:export-filename="/Users/tonyg 1/Documents/work/Tony Gaitatzis/web template example/tonygaitatzis.com/assets/img/icon_yinyang.png"
       inkscape:export-xdpi="66.297188"
       inkscape:export-ydpi="66.297188">
      <g
         transform="matrix(1.25,0,0,-1.25,350.8721,679.28833)"
         id="g6668"
         style="fill:#343f53;fill-opacity:1">
        <path
           id="path6670"
           style="fill:#343f53;fill-opacity:1;fill-rule:nonzero;stroke:none"
           d="m 0,0 c -0.918,-1.285 -2.102,-1.904 -3.244,-1.904 -1.496,0 -3.108,1.134 -3.108,3.627 0,3.039 -2.066,4.629 -4.107,4.629 -0.564,0 -1.137,-0.122 -1.693,-0.358 1.285,1.492 3.183,2.442 5.3,2.442 3.86,0 7,-3.141 7,-7 C 0.148,0.943 0.096,0.463 0,0 m -10.352,0.436 c -0.828,0 -1.5,0.671 -1.5,1.5 0,0.828 0.672,1.5 1.5,1.5 0.829,0 1.5,-0.672 1.5,-1.5 0,-0.829 -0.671,-1.5 -1.5,-1.5 M 1.129,1.85 c -0.217,4.224 -3.701,7.586 -7.981,7.586 -3.787,0 -6.955,-2.637 -7.781,-6.174 -0.138,-0.586 -0.219,-1.196 -0.219,-1.826 0,-0.299 0.02,-0.594 0.053,-0.885 0.442,-4.002 3.83,-7.115 7.947,-7.115 3.418,0 6.327,2.148 7.473,5.162 0.336,0.882 0.527,1.838 0.527,2.838 0,0.14 -0.013,0.275 -0.019,0.414" />
      </g>
      <g
         transform="matrix(1.25,0,0,-1.25,347.26631,675.33611)"
         id="g6672"
         style="fill:#343f53;fill-opacity:1">
        <path
           id="path6674"
           style="fill:#343f53;fill-opacity:1;fill-rule:nonzero;stroke:none"
           d="M 0,0 C -0.828,0 -1.5,-0.672 -1.5,-1.5 -1.5,-2.328 -0.828,-3 0,-3 0.828,-3 1.5,-2.328 1.5,-1.5 1.5,-0.672 0.828,0 0,0" />
      </g>
    </g>
    <g
       id="g10733"
       transform="matrix(3.2580566,0,0,3.2580566,-808.71495,-1273.1658)"
       style="fill:#343f53;fill-opacity:1"
       inkscape:export-filename="/Users/tonyg 1/Documents/work/Tony Gaitatzis/web template example/tonygaitatzis.com/assets/img/icon_rocket.png"
       inkscape:export-xdpi="66.297997"
       inkscape:export-ydpi="66.297997">
      <g
         transform="matrix(1.25,0,0,-1.25,345.95125,626.15715)"
         id="g6676"
         style="fill:#343f53;fill-opacity:1">
        <path
           id="path6678"
           style="fill:#343f53;fill-opacity:1;fill-rule:nonzero;stroke:none"
           d="m 0,0 c -0.586,-0.586 -1.535,-0.586 -2.121,0 -0.586,0.586 -0.586,1.535 0,2.121 0.586,0.586 1.535,0.586 2.121,0 C 0.586,1.535 0.586,0.586 0,0 m -2.828,-2.828 c -0.586,-0.586 -1.535,-0.586 -2.121,0 -0.586,0.586 -0.588,1.535 0,2.121 0.586,0.586 1.535,0.586 2.121,0 0.586,-0.586 0.586,-1.535 0,-2.121 M 0.129,4.521 C -0.914,4.174 -2.404,3.252 -3.182,2.475 l -4.242,-4.243 c -0.389,-0.388 -0.389,-1.025 0,-1.414 l 2.121,-2.121 c 0.389,-0.388 1.026,-0.388 1.414,0 l 4.243,4.242 C 1.131,-0.283 2.053,1.207 2.4,2.252 L 3.535,5.658 0.129,4.521 z" />
      </g>
      <g
         transform="matrix(1.25,0,0,-1.25,333.13387,630.13415)"
         id="g6680"
         style="fill:#343f53;fill-opacity:1">
        <path
           id="path6682"
           style="fill:#343f53;fill-opacity:1;fill-rule:nonzero;stroke:none"
           d="m 0,0 3.537,3.535 c -0.779,0.778 -2.051,0.778 -2.828,0 L -1.414,1.414 C -1.803,1.025 -1.803,0.389 -1.414,0 -1.025,-0.389 -0.389,-0.389 0,0" />
      </g>
      <g
         transform="matrix(1.25,0,0,-1.25,339.32288,636.32077)"
         id="g6684"
         style="fill:#343f53;fill-opacity:1">
        <path
           id="path6686"
           style="fill:#343f53;fill-opacity:1;fill-rule:nonzero;stroke:none"
           d="m 0,0 c -0.389,-0.389 -0.389,-1.025 0,-1.414 0.389,-0.389 1.025,-0.389 1.414,0 l 2.121,2.121 c 0.778,0.777 0.778,2.051 0,2.828 L 0,0 z" />
      </g>
      <g
         transform="matrix(1.25,0,0,-1.25,335.34337,631.4599)"
         id="g6688"
         style="fill:#343f53;fill-opacity:1">
        <path
           id="path6690"
           style="fill:#343f53;fill-opacity:1;fill-rule:nonzero;stroke:none"
           d="m 0,0 c -0.193,-0.195 -0.193,-0.514 0,-0.707 l 1.416,-1.414 c 0.193,-0.195 0.512,-0.195 0.707,0 L 2.477,-1.768 0.354,0.354 0,0 z" />
      </g>
      <g
         transform="matrix(1.25,0,0,-1.25,330.37025,639.0844)"
         id="g6692"
         style="fill:#343f53;fill-opacity:1">
        <path
           id="path6694"
           style="fill:#343f53;fill-opacity:1;fill-rule:nonzero;stroke:none"
           d="M 0,0 C 2,1 5,3 4,4 3,5 1,2 0,0" />
      </g>
    </g>
  </g>
</svg>
