<?xml version="1.0" encoding="UTF-8" standalone="no"?>
<!-- Created with Inkscape (http://www.inkscape.org/) -->

<svg
   xmlns:dc="http://purl.org/dc/elements/1.1/"
   xmlns:cc="http://creativecommons.org/ns#"
   xmlns:rdf="http://www.w3.org/1999/02/22-rdf-syntax-ns#"
   xmlns:svg="http://www.w3.org/2000/svg"
   xmlns="http://www.w3.org/2000/svg"
   xmlns:xlink="http://www.w3.org/1999/xlink"
   xmlns:sodipodi="http://sodipodi.sourceforge.net/DTD/sodipodi-0.dtd"
   xmlns:inkscape="http://www.inkscape.org/namespaces/inkscape"
   width="550"
   height="300"
   id="svg5901"
   version="1.1"
   inkscape:version="0.47 r22583"
   sodipodi:docname="timeline.svg">
  <defs
     id="defs5903">
    <inkscape:perspective
       sodipodi:type="inkscape:persp3d"
       inkscape:vp_x="0 : 526.18109 : 1"
       inkscape:vp_y="0 : 1000 : 0"
       inkscape:vp_z="744.09448 : 526.18109 : 1"
       inkscape:persp3d-origin="372.04724 : 350.78739 : 1"
       id="perspective5909" />
    <inkscape:perspective
       sodipodi:type="inkscape:persp3d"
       inkscape:vp_x="0 : 0.5 : 1"
       inkscape:vp_y="0 : 1000 : 0"
       inkscape:vp_z="1 : 0.5 : 1"
       inkscape:persp3d-origin="0.5 : 0.33333333 : 1"
       id="perspective5280" />
    <clipPath
       clipPathUnits="userSpaceOnUse"
       id="clipPath5304">
      <path
         d="M 0,792 612,792 612,0 0,0 0,792 z"
         id="path5306" />
    </clipPath>
    <linearGradient
       y2="356.78146"
       x2="335.40619"
       y1="382.19601"
       x1="299.83704"
       gradientTransform="matrix(0.6196998,0,0,0.6196998,-705.00078,-389.22558)"
       gradientUnits="userSpaceOnUse"
       id="linearGradient5092"
       xlink:href="#linearGradient6042"
       inkscape:collect="always" />
    <linearGradient
       y2="353.23364"
       x2="386.82846"
       y1="414.96759"
       x1="392.22586"
       gradientTransform="matrix(0.6196998,0,0,0.6196998,-705.00078,-389.22558)"
       gradientUnits="userSpaceOnUse"
       id="linearGradient5090"
       xlink:href="#linearGradient6018"
       inkscape:collect="always" />
    <linearGradient
       y2="342.46527"
       x2="389.11099"
       y1="327.63007"
       x1="304.21442"
       gradientTransform="matrix(0.6196998,0,0,0.6196998,-701.06348,-389.83133)"
       gradientUnits="userSpaceOnUse"
       id="linearGradient5088"
       xlink:href="#linearGradient6026"
       inkscape:collect="always" />
    <radialGradient
       r="60.107999"
       fy="319.3927"
       fx="91.871078"
       cy="319.3927"
       cx="91.871078"
       gradientTransform="matrix(0.6061626,0,0,0.5863238,-534.63348,-346.08612)"
       gradientUnits="userSpaceOnUse"
       id="radialGradient5086"
       xlink:href="#linearGradient6066"
       inkscape:collect="always" />
    <inkscape:perspective
       sodipodi:type="inkscape:persp3d"
       inkscape:vp_x="0 : 88.58268 : 1"
       inkscape:vp_y="0 : 1000 : 0"
       inkscape:vp_z="318.89764 : 88.58268 : 1"
       inkscape:persp3d-origin="159.44882 : 59.05512 : 1"
       id="perspective4866" />
    <linearGradient
       id="linearGradient6042">
      <stop
         style="stop-color:#000000;stop-opacity:0.49484536;"
         offset="0"
         id="stop6044" />
      <stop
         style="stop-color:#000000;stop-opacity:0;"
         offset="1"
         id="stop6046" />
    </linearGradient>
    <linearGradient
       id="linearGradient6018">
      <stop
         style="stop-color:#000000;stop-opacity:1;"
         offset="0"
         id="stop6020" />
      <stop
         style="stop-color:#000000;stop-opacity:0.36082473;"
         offset="1"
         id="stop6022" />
    </linearGradient>
    <linearGradient
       id="linearGradient6026">
      <stop
         style="stop-color:#ffffff;stop-opacity:1;"
         offset="0"
         id="stop6028" />
      <stop
         style="stop-color:#ffffff;stop-opacity:0;"
         offset="1"
         id="stop6030" />
    </linearGradient>
    <linearGradient
       id="linearGradient6066">
      <stop
         style="stop-color:#000000;stop-opacity:1;"
         offset="0"
         id="stop6068" />
      <stop
         style="stop-color:#a95e5e;stop-opacity:1;"
         offset="1"
         id="stop6070" />
    </linearGradient>
    <inkscape:perspective
       sodipodi:type="inkscape:persp3d"
       inkscape:vp_x="0 : 0.5 : 1"
       inkscape:vp_y="0 : 1000 : 0"
       inkscape:vp_z="1 : 0.5 : 1"
       inkscape:persp3d-origin="0.5 : 0.33333333 : 1"
       id="perspective4078" />
    <inkscape:perspective
       sodipodi:type="inkscape:persp3d"
       inkscape:vp_x="0 : 0.5 : 1"
       inkscape:vp_y="0 : 1000 : 0"
       inkscape:vp_z="1 : 0.5 : 1"
       inkscape:persp3d-origin="0.5 : 0.33333333 : 1"
       id="perspective3963" />
    <inkscape:perspective
       id="perspective10"
       inkscape:persp3d-origin="372.04724 : 350.78739 : 1"
       inkscape:vp_z="744.09448 : 526.18109 : 1"
       inkscape:vp_y="0 : 1000 : 0"
       inkscape:vp_x="0 : 526.18109 : 1"
       sodipodi:type="inkscape:persp3d" />
  </defs>
  <sodipodi:namedview
     id="base"
     pagecolor="#ffffff"
     bordercolor="#ffffff"
     borderopacity="0.0"
     inkscape:pageopacity="0.0"
     inkscape:pageshadow="0"
     inkscape:zoom="1.3481507"
     inkscape:cx="383.69366"
     inkscape:cy="20.535487"
     inkscape:document-units="px"
     inkscape:current-layer="g3841"
     showgrid="false"
     inkscape:window-width="563"
     inkscape:window-height="460"
     inkscape:window-x="24"
     inkscape:window-y="20"
     inkscape:window-maximized="0"
     showguides="true"
     inkscape:guide-bbox="true" />
  <metadata
     id="metadata5906">
    <rdf:RDF>
      <cc:Work
         rdf:about="">
        <dc:format>image/svg+xml</dc:format>
        <dc:type
           rdf:resource="http://purl.org/dc/dcmitype/StillImage" />
        <dc:title />
      </cc:Work>
    </rdf:RDF>
  </metadata>
  <g
     inkscape:label="Layer 1"
     inkscape:groupmode="layer"
     id="layer1">
    <g
       id="layer1-2"
       inkscape:label="Layer 1"
       transform="matrix(3.7084122,0,0,3.7084122,-214.99214,-2098.3839)">
      <text
         xml:space="preserve"
         style="font-size:2.53311944px;font-style:normal;font-weight:normal;fill:#000000;fill-opacity:1;stroke:none;font-family:Arial"
         x="59.29467"
         y="615.33917"
         id="text2889"><tspan
           sodipodi:role="line"
           id="tspan2891"
           x="59.29467"
           y="615.33917">'99</tspan></text>
      <text
         id="text2893"
         y="615.33917"
         x="69.285637"
         style="font-size:2.53311944px;font-style:normal;font-weight:normal;fill:#000000;fill-opacity:1;stroke:none;font-family:Arial"
         xml:space="preserve"><tspan
           y="615.33917"
           x="69.285637"
           id="tspan2895"
           sodipodi:role="line">'00</tspan></text>
      <text
         xml:space="preserve"
         style="font-size:2.53311944px;font-style:normal;font-weight:normal;fill:#000000;fill-opacity:1;stroke:none;font-family:Arial"
         x="79.276604"
         y="615.33917"
         id="text2897"><tspan
           sodipodi:role="line"
           id="tspan2899"
           x="79.276604"
           y="615.33917">'01</tspan></text>
      <text
         id="text2901"
         y="615.33917"
         x="89.267563"
         style="font-size:2.53311944px;font-style:normal;font-weight:normal;fill:#000000;fill-opacity:1;stroke:none;font-family:Arial"
         xml:space="preserve"><tspan
           y="615.33917"
           x="89.267563"
           id="tspan2903"
           sodipodi:role="line">'02</tspan></text>
      <text
         xml:space="preserve"
         style="font-size:2.53311944px;font-style:normal;font-weight:normal;fill:#000000;fill-opacity:1;stroke:none;font-family:Arial"
         x="99.25853"
         y="615.33917"
         id="text2905"><tspan
           sodipodi:role="line"
           id="tspan2907"
           x="99.25853"
           y="615.33917">'03</tspan></text>
      <text
         id="text2909"
         y="615.33917"
         x="109.2495"
         style="font-size:2.53311944px;font-style:normal;font-weight:normal;fill:#000000;fill-opacity:1;stroke:none;font-family:Arial"
         xml:space="preserve"><tspan
           y="615.33917"
           x="109.2495"
           id="tspan2911"
           sodipodi:role="line">'04</tspan></text>
      <text
         xml:space="preserve"
         style="font-size:2.53311944px;font-style:normal;font-weight:normal;fill:#000000;fill-opacity:1;stroke:none;font-family:Arial"
         x="119.24046"
         y="615.33917"
         id="text2913"><tspan
           sodipodi:role="line"
           id="tspan2915"
           x="119.24046"
           y="615.33917">'05</tspan></text>
      <text
         id="text2917"
         y="615.33917"
         x="129.23141"
         style="font-size:2.53311944px;font-style:normal;font-weight:normal;fill:#000000;fill-opacity:1;stroke:none;font-family:Arial"
         xml:space="preserve"><tspan
           y="615.33917"
           x="129.23141"
           id="tspan2919"
           sodipodi:role="line">'06</tspan></text>
      <text
         xml:space="preserve"
         style="font-size:2.53311944px;font-style:normal;font-weight:normal;fill:#000000;fill-opacity:1;stroke:none;font-family:Arial"
         x="139.22238"
         y="615.33917"
         id="text2921"><tspan
           sodipodi:role="line"
           id="tspan2923"
           x="139.22238"
           y="615.33917">'07</tspan></text>
      <text
         id="text2925"
         y="615.33917"
         x="149.21335"
         style="font-size:2.53311944px;font-style:normal;font-weight:normal;fill:#000000;fill-opacity:1;stroke:none;font-family:Arial"
         xml:space="preserve"><tspan
           y="615.33917"
           x="149.21335"
           id="tspan2927"
           sodipodi:role="line">'08</tspan></text>
      <text
         xml:space="preserve"
         style="font-size:2.53311944px;font-style:normal;font-weight:normal;fill:#000000;fill-opacity:1;stroke:none;font-family:Arial"
         x="159.20432"
         y="615.33917"
         id="text2929"><tspan
           sodipodi:role="line"
           id="tspan2931"
           x="159.20432"
           y="615.33917">'09</tspan></text>
      <text
         id="text2933"
         y="615.33917"
         x="169.19528"
         style="font-size:2.53311944px;font-style:normal;font-weight:normal;fill:#000000;fill-opacity:1;stroke:none;font-family:Arial"
         xml:space="preserve"><tspan
           y="615.33917"
           x="169.19528"
           id="tspan2935"
           sodipodi:role="line">'10</tspan></text>
      <text
         xml:space="preserve"
         style="font-size:2.53311944px;font-style:normal;font-weight:normal;fill:#000000;fill-opacity:1;stroke:none;font-family:Arial"
         x="179.18623"
         y="615.33917"
         id="text2937"><tspan
           sodipodi:role="line"
           id="tspan2939"
           x="179.18623"
           y="615.33917">'11</tspan></text>
      <text
         id="text2941"
         y="615.33917"
         x="189.1772"
         style="font-size:2.53311944px;font-style:normal;font-weight:normal;fill:#000000;fill-opacity:1;stroke:none;font-family:Arial"
         xml:space="preserve"><tspan
           y="615.33917"
           x="189.1772"
           id="tspan2943"
           sodipodi:role="line">'12</tspan></text>
      <text
         xml:space="preserve"
         style="font-size:2.53311944px;font-style:normal;font-weight:normal;fill:#000000;fill-opacity:1;stroke:none;font-family:Arial"
         x="199.16817"
         y="615.33917"
         id="text2945"><tspan
           sodipodi:role="line"
           id="tspan2947"
           x="199.16817"
           y="615.33917">'13</tspan></text>
      <g
         style="stroke-width:0.1;stroke-miterlimit:4;stroke-dasharray:none"
         id="g2983">
        <path
           style="fill:none;stroke:#000000;stroke-width:0.1;stroke-linecap:butt;stroke-linejoin:miter;stroke-miterlimit:4;stroke-opacity:1;stroke-dasharray:none"
           d="m 58.478169,612.1885 147.898211,0"
           id="path2883"
           sodipodi:nodetypes="cz" />
        <path
           style="fill:none;stroke:#000000;stroke-width:0.1;stroke-linecap:butt;stroke-linejoin:miter;stroke-miterlimit:4;stroke-opacity:1;stroke-dasharray:none"
           d="m 58.335338,618.58659 0,-21.79562"
           id="path2951" />
        <path
           id="path2953"
           d="m 68.335338,618.58659 0,-21.79562"
           style="fill:none;stroke:#000000;stroke-width:0.1;stroke-linecap:butt;stroke-linejoin:miter;stroke-miterlimit:4;stroke-opacity:1;stroke-dasharray:none" />
        <path
           style="fill:none;stroke:#000000;stroke-width:0.1;stroke-linecap:butt;stroke-linejoin:miter;stroke-miterlimit:4;stroke-opacity:1;stroke-dasharray:none"
           d="m 78.335338,618.58659 0,-21.79562"
           id="path2955" />
        <path
           id="path2957"
           d="m 88.335338,618.58659 0,-21.79562"
           style="fill:none;stroke:#000000;stroke-width:0.1;stroke-linecap:butt;stroke-linejoin:miter;stroke-miterlimit:4;stroke-opacity:1;stroke-dasharray:none" />
        <path
           style="fill:none;stroke:#000000;stroke-width:0.1;stroke-linecap:butt;stroke-linejoin:miter;stroke-miterlimit:4;stroke-opacity:1;stroke-dasharray:none"
           d="m 98.335338,618.58659 0,-21.79562"
           id="path2959" />
        <path
           id="path2961"
           d="m 108.33534,618.58659 0,-21.79562"
           style="fill:none;stroke:#000000;stroke-width:0.1;stroke-linecap:butt;stroke-linejoin:miter;stroke-miterlimit:4;stroke-opacity:1;stroke-dasharray:none" />
        <path
           style="fill:none;stroke:#000000;stroke-width:0.1;stroke-linecap:butt;stroke-linejoin:miter;stroke-miterlimit:4;stroke-opacity:1;stroke-dasharray:none"
           d="m 118.33534,618.58659 0,-21.79562"
           id="path2963" />
        <path
           id="path2965"
           d="m 128.33534,618.58659 0,-21.79562"
           style="fill:none;stroke:#000000;stroke-width:0.1;stroke-linecap:butt;stroke-linejoin:miter;stroke-miterlimit:4;stroke-opacity:1;stroke-dasharray:none" />
        <path
           style="fill:none;stroke:#000000;stroke-width:0.1;stroke-linecap:butt;stroke-linejoin:miter;stroke-miterlimit:4;stroke-opacity:1;stroke-dasharray:none"
           d="m 138.33534,618.58659 0,-21.79562"
           id="path2967" />
        <path
           id="path2969"
           d="m 148.33534,618.58659 0,-21.79562"
           style="fill:none;stroke:#000000;stroke-width:0.1;stroke-linecap:butt;stroke-linejoin:miter;stroke-miterlimit:4;stroke-opacity:1;stroke-dasharray:none" />
        <path
           style="fill:none;stroke:#000000;stroke-width:0.1;stroke-linecap:butt;stroke-linejoin:miter;stroke-miterlimit:4;stroke-opacity:1;stroke-dasharray:none"
           d="m 158.33534,618.58659 0,-21.79562"
           id="path2971" />
        <path
           id="path2973"
           d="m 168.33534,618.58659 0,-21.79562"
           style="fill:none;stroke:#000000;stroke-width:0.1;stroke-linecap:butt;stroke-linejoin:miter;stroke-miterlimit:4;stroke-opacity:1;stroke-dasharray:none" />
        <path
           style="fill:none;stroke:#000000;stroke-width:0.1;stroke-linecap:butt;stroke-linejoin:miter;stroke-miterlimit:4;stroke-opacity:1;stroke-dasharray:none"
           d="m 178.33534,618.58659 0,-21.79562"
           id="path2975" />
        <path
           id="path2977"
           d="m 188.33534,618.58659 0,-21.79562"
           style="fill:none;stroke:#000000;stroke-width:0.1;stroke-linecap:butt;stroke-linejoin:miter;stroke-miterlimit:4;stroke-opacity:1;stroke-dasharray:none" />
        <path
           style="fill:none;stroke:#000000;stroke-width:0.1;stroke-linecap:butt;stroke-linejoin:miter;stroke-miterlimit:4;stroke-opacity:1;stroke-dasharray:none"
           d="m 198.33534,618.58659 0,-21.79562"
           id="path2979" />
      </g>
      <rect
         y="606.19305"
         x="75.857437"
         height="5.9829102"
         width="92.178223"
         id="rect2981"
         style="fill:#798aa9;fill-opacity:1;stroke:none" />
      <path
         sodipodi:nodetypes="cccccc"
         id="rect3773"
         d="m 75.85743,-608.75702 49.93127,0 1.2821,2.99145 -1.2821,2.99146 -49.93127,0 0,-5.98291 z"
         style="fill:#343f53;fill-opacity:1;stroke:none"
         transform="scale(1,-1)" />
      <path
         sodipodi:nodetypes="cccccc"
         id="path3780"
         d="m 131.20121,608.75702 44.87307,0 1.2821,-2.99145 -1.2821,-2.99146 -44.87307,0 0,5.98291 z"
         style="fill:#343f53;fill-opacity:1;stroke:none" />
      <path
         style="fill:#343f53;fill-opacity:1;stroke:none"
         d="m 186.29189,608.75702 17.77481,0 1.2821,-2.99145 -1.2821,-2.99146 -17.77481,0 0,5.98291 z"
         id="path3782"
         sodipodi:nodetypes="cccccc" />
      <g
         id="g3790">
        <path
           style="fill:none;stroke:#343f53;stroke-width:0.60000002;stroke-linecap:butt;stroke-linejoin:miter;stroke-miterlimit:4;stroke-opacity:1;stroke-dasharray:none"
           d="m 76.156154,603.15904 0,-2.50744"
           id="path3786"
           sodipodi:nodetypes="cc" />
        <path
           sodipodi:type="arc"
           style="fill:none;stroke:#343f53;stroke-width:1.01127505;stroke-linecap:round;stroke-miterlimit:4;stroke-opacity:1;stroke-dasharray:none"
           id="path3788"
           sodipodi:cx="76.059097"
           sodipodi:cy="599.6142"
           sodipodi:rx="1.2823452"
           sodipodi:ry="1.2823452"
           d="m 74.776829,599.60015 c 0.0078,-0.70817 0.588133,-1.27598 1.296311,-1.26822 0.708177,0.008 1.275981,0.58813 1.268226,1.29631 -0.0078,0.70818 -0.588134,1.27598 -1.296311,1.26823 -0.7027,-0.008 -1.268303,-0.57953 -1.268303,-1.28227"
           sodipodi:start="3.1525433"
           sodipodi:end="9.424778"
           sodipodi:open="true"
           transform="matrix(0.5933104,0,0,0.5933104,31.027508,243.97306)" />
      </g>
      <g
         transform="translate(55.356662,0)"
         id="g3806">
        <path
           sodipodi:nodetypes="cc"
           id="path3808"
           d="m 76.156154,603.15904 0,-2.50744"
           style="fill:none;stroke:#343f53;stroke-width:0.60000002;stroke-linecap:butt;stroke-linejoin:miter;stroke-miterlimit:4;stroke-opacity:1;stroke-dasharray:none" />
        <path
           transform="matrix(0.5933104,0,0,0.5933104,31.027508,243.97306)"
           sodipodi:open="true"
           sodipodi:end="9.424778"
           sodipodi:start="3.1525433"
           d="m 74.776829,599.60015 c 0.0078,-0.70817 0.588133,-1.27598 1.296311,-1.26822 0.708177,0.008 1.275981,0.58813 1.268226,1.29631 -0.0078,0.70818 -0.588134,1.27598 -1.296311,1.26823 -0.7027,-0.008 -1.268303,-0.57953 -1.268303,-1.28227"
           sodipodi:ry="1.2823452"
           sodipodi:rx="1.2823452"
           sodipodi:cy="599.6142"
           sodipodi:cx="76.059097"
           id="path3810"
           style="fill:none;stroke:#343f53;stroke-width:1.01127505;stroke-linecap:round;stroke-miterlimit:4;stroke-opacity:1;stroke-dasharray:none"
           sodipodi:type="arc" />
      </g>
      <g
         id="g3812"
         transform="matrix(1,0,0,-1,110.43056,1211.919)">
        <path
           style="fill:none;stroke:#343f53;stroke-width:0.60000002;stroke-linecap:butt;stroke-linejoin:miter;stroke-miterlimit:4;stroke-opacity:1;stroke-dasharray:none"
           d="m 76.156154,603.15904 0,-2.50744"
           id="path3814"
           sodipodi:nodetypes="cc" />
        <path
           sodipodi:type="arc"
           style="fill:none;stroke:#343f53;stroke-width:1.01127505;stroke-linecap:round;stroke-miterlimit:4;stroke-opacity:1;stroke-dasharray:none"
           id="path3816"
           sodipodi:cx="76.059097"
           sodipodi:cy="599.6142"
           sodipodi:rx="1.2823452"
           sodipodi:ry="1.2823452"
           d="m 74.776829,599.60015 c 0.0078,-0.70817 0.588133,-1.27598 1.296311,-1.26822 0.708177,0.008 1.275981,0.58813 1.268226,1.29631 -0.0078,0.70818 -0.588134,1.27598 -1.296311,1.26823 -0.7027,-0.008 -1.268303,-0.57953 -1.268303,-1.28227"
           sodipodi:start="3.1525433"
           sodipodi:end="9.424778"
           sodipodi:open="true"
           transform="matrix(0.5933104,0,0,0.5933104,31.027508,243.97306)" />
      </g>
      <flowRoot
         style="font-size:40px;font-style:normal;font-weight:normal;fill:#000000;fill-opacity:1;stroke:none;font-family:Arial"
         id="flowRoot3826"
         xml:space="preserve"><flowRegion
           id="flowRegion3828"><rect
             y="539.74316"
             x="77.497711"
             height="50.279003"
             width="100.17996"
             id="rect3830" /></flowRegion><flowPara
           id="flowPara3832" /></flowRoot>      <g
         transform="translate(-23.365636,27.144924)"
         id="g3841">
        <text
           xml:space="preserve"
           style="font-size:2.96622905px;font-style:normal;font-variant:normal;font-weight:bold;font-stretch:normal;text-align:start;line-height:125%;writing-mode:lr;text-anchor:start;fill:#000000;fill-opacity:1;stroke:none;font-family:Arial;-inkscape-font-specification:Arial Bold"
           x="94.284821"
           y="556.06494"
           id="text3818"
           sodipodi:linespacing="125%"><tspan
             sodipodi:role="line"
             id="tspan3820"
             x="94.284821"
             y="556.06494">uOttawa</tspan></text>
        <text
           id="text3822"
           y="558.97546"
           x="94.309349"
           style="font-size:2.69657186px;font-style:normal;font-weight:normal;fill:#000000;fill-opacity:1;stroke:none;font-family:Arial;-inkscape-font-specification:Arial;font-stretch:normal;font-variant:normal;text-anchor:start;text-align:start;writing-mode:lr;line-height:125%"
           xml:space="preserve"
           sodipodi:linespacing="125%"><tspan
             y="558.97546"
             x="94.309349"
             id="tspan3824"
             sodipodi:role="line">Web Programmer building social</tspan><tspan
             y="561.86151"
             x="94.309349"
             sodipodi:role="line"
             id="tspan3834">media platform for student services</tspan></text>
        <rect
           style="fill:none;stroke:#343f53;stroke-width:0.60000002;stroke-miterlimit:4;stroke-opacity:1;stroke-dasharray:none"
           id="rect3836"
           width="62.509003"
           height="12.853271"
           x="81.639809"
           y="552.06549"
           rx="1.864216"
           ry="1.864216" />
      </g>
      <g
         id="g3863"
         transform="translate(46.545018,27.144924)">
        <text
           sodipodi:linespacing="125%"
           id="text3865"
           y="556.06494"
           x="94.284821"
           style="font-size:2.96622896px;font-style:normal;font-variant:normal;font-weight:bold;font-stretch:normal;text-align:start;line-height:125%;writing-mode:lr-tb;text-anchor:start;fill:#000000;fill-opacity:1;stroke:none;font-family:Arial;-inkscape-font-specification:Arial Bold"
           xml:space="preserve"><tspan
             y="556.06494"
             x="94.284821"
             id="tspan3867"
             sodipodi:role="line">BackupBrain</tspan></text>
        <text
           xml:space="preserve"
           style="font-size:2.69657183px;font-style:normal;font-variant:normal;font-weight:normal;font-stretch:normal;text-align:start;line-height:125%;writing-mode:lr-tb;text-anchor:start;fill:#000000;fill-opacity:1;stroke:none;font-family:Arial;-inkscape-font-specification:Arial"
           x="94.309349"
           y="558.97546"
           id="text3869"
           sodipodi:linespacing="125%"><tspan
             id="tspan5825"
             sodipodi:role="line"
             x="94.309349"
             y="558.97546">Founded web marketing agency</tspan><tspan
             id="tspan5829"
             sodipodi:role="line"
             x="94.309349"
             y="562.34619">worked with industry and government</tspan></text>
        <rect
           ry="1.864216"
           rx="1.864216"
           y="552.06549"
           x="82.482803"
           height="12.853271"
           width="65.359337"
           id="rect3875"
           style="fill:none;stroke:#343f53;stroke-width:0.60000002;stroke-miterlimit:4;stroke-opacity:1;stroke-dasharray:none" />
      </g>
      <g
         transform="translate(65.139533,72.669223)"
         id="g3877">
        <text
           xml:space="preserve"
           style="font-size:2.96622896px;font-style:normal;font-variant:normal;font-weight:bold;font-stretch:normal;text-align:start;line-height:125%;writing-mode:lr-tb;text-anchor:start;fill:#000000;fill-opacity:1;stroke:none;font-family:Arial;-inkscape-font-specification:Arial Bold"
           x="88.352364"
           y="556.06494"
           id="text3879"
           sodipodi:linespacing="125%"><tspan
             sodipodi:role="line"
             id="tspan3881"
             x="88.352364"
             y="556.06494">Personal Neuro</tspan></text>
        <text
           id="text3883"
           y="558.97546"
           x="88.376892"
           style="font-size:2.69657183px;font-style:normal;font-variant:normal;font-weight:normal;font-stretch:normal;text-align:start;line-height:125%;writing-mode:lr-tb;text-anchor:start;fill:#000000;fill-opacity:1;stroke:none;font-family:Arial;-inkscape-font-specification:Arial"
           xml:space="preserve"
           sodipodi:linespacing="125%"><tspan
             y="558.97546"
             x="88.376892"
             id="tspan3885"
             sodipodi:role="line">Co-founded brain imaging company</tspan><tspan
             y="562.34619"
             x="88.376892"
             sodipodi:role="line"
             id="tspan3887">develop seizure-prediction software</tspan></text>
        <rect
           style="fill:none;stroke:#343f53;stroke-width:0.60000002;stroke-miterlimit:4;stroke-opacity:1;stroke-dasharray:none"
           id="rect3889"
           width="63.588089"
           height="12.853271"
           x="75.428345"
           y="552.06549"
           rx="1.864216"
           ry="1.864216" />
      </g>
      <path
         id="path3891"
         d="m 131.76598,598.53299 10.96437,-6.33028"
         style="fill:none;stroke:#000000;stroke-width:0.60000002;stroke-linecap:butt;stroke-linejoin:miter;stroke-miterlimit:4;stroke-opacity:1;stroke-dasharray:0.6, 1.2;stroke-dashoffset:0" />
      <path
         style="fill:none;stroke:#000000;stroke-width:0.60000002;stroke-linecap:butt;stroke-linejoin:miter;stroke-miterlimit:4;stroke-opacity:1;stroke-dasharray:0.6, 1.2;stroke-dashoffset:0"
         d="m 76.627854,598.53299 10.96437,-6.33028"
         id="path3893" />
      <path
         sodipodi:nodetypes="cccccccccssccccccccccccccccccccccsscccccccccccccccccccccccccccccccccccscccccscccccccccsssssssccccccssssssscccccccsssssscccccccsssssssccccccscccssssssc"
         id="path3969"
         d="m 60.935519,585.81621 0,-3.59758 0.464204,0 0.464204,0 0,-0.23211 0,-0.2321 0.452682,0 0.452694,0 0.162382,-0.21898 c 0.209322,-0.28228 0.578973,-0.53843 0.967929,-0.67073 0.418936,-0.1425 1.199141,-0.151 1.606783,-0.0175 0.370725,0.1214 0.800517,0.41671 0.999432,0.68673 l 0.162434,0.2205 0.452687,0 0.452686,0 0,0.2321 0,0.2321 0.464204,0 0.464198,0 0,3.59758 0,3.59757 -3.783258,0 -3.783261,0 0,-3.59757 z m 7.14874,0 0,-3.1798 -0.464205,0 -0.464205,0 0,-0.25531 0,-0.25531 -0.384014,0 -0.384022,0 -0.08987,-0.16688 c -0.131827,-0.24478 -0.501359,-0.55576 -0.803869,-0.67648 -0.382073,-0.15247 -1.168519,-0.15247 -1.550592,0 -0.302517,0.12072 -0.672042,0.4317 -0.803877,0.67648 l -0.08986,0.16688 -0.384022,0 -0.384014,0 0,0.25531 0,0.25531 -0.464203,0 -0.4642,0 0,3.1798 0,3.1798 3.365474,0 3.365479,0 0,-3.1798 z m -6.498853,2.59954 0,-0.11605 3.133374,0 3.133373,0 0,0.11605 0,0.11605 -3.133373,0 -3.133374,0 0,-0.11605 z m 0.185681,-0.37136 0,-0.11606 2.947693,0 2.947692,0 0,0.11606 0,0.11605 -2.947692,0 -2.947693,0 0,-0.11605 z m 0.18568,-0.58026 c 0,-0.16374 0.01285,-0.18568 0.108639,-0.18568 l 0.108634,0 0.03043,-1.07925 c 0.02949,-1.04713 0.02762,-1.08133 -0.06344,-1.15001 -0.05162,-0.0389 -0.106471,-0.14862 -0.121909,-0.24375 l -0.02806,-0.17295 2.727742,0 2.727733,0 -0.02807,0.17295 c -0.01545,0.0951 -0.07032,0.20482 -0.121906,0.24375 -0.09105,0.0687 -0.09294,0.10288 -0.06345,1.15001 l 0.03038,1.07925 0.108641,0 c 0.09579,0 0.108632,0.022 0.108632,0.18568 l 0,0.18568 -2.762012,0 -2.762012,0 0,-0.18568 z m 1.362821,-0.35975 c 0.01582,-0.0958 0.02896,-0.59709 0.02926,-1.1141 3.72e-4,-0.80484 -0.0095,-0.94 -0.06912,-0.94 -0.03867,0 -0.06965,-0.0412 -0.06965,-0.0929 0,-0.0791 -0.0309,-0.0929 -0.208898,-0.0929 -0.114888,0 -0.206418,0.0157 -0.203395,0.0348 0.01508,0.0958 -0.01232,0.15088 -0.07513,0.15088 -0.05898,0 -0.06958,0.11206 -0.06935,0.73112 1.41e-4,0.40211 0.01374,0.90345 0.03008,1.11409 l 0.02978,0.38296 0.288774,0 0.288781,0 0.02874,-0.17407 z m 1.159844,-0.52963 c 0.0168,-0.38701 0.03046,-0.88592 0.03046,-1.10866 0,-0.36595 -0.009,-0.40733 -0.09284,-0.42927 -0.05106,-0.0134 -0.09285,-0.0576 -0.09285,-0.0983 0,-0.0553 -0.04673,-0.074 -0.185681,-0.074 -0.154737,0 -0.185681,0.0156 -0.185681,0.0929 0,0.0641 -0.03091,0.0929 -0.09972,0.0929 -0.09637,0 -0.09873,0.0129 -0.06988,0.38295 0.01642,0.21064 0.02993,0.71198 0.03008,1.11409 l 1.87e-4,0.73113 0.317693,0 0.317695,0 0.03046,-0.70369 8e-6,0 z m 1.144824,-0.0274 c 1.42e-4,-0.40212 0.01374,-0.90346 0.03008,-1.11409 0.02882,-0.37008 0.02642,-0.38297 -0.06994,-0.38297 -0.06875,0 -0.09972,-0.0288 -0.09972,-0.0928 0,-0.0774 -0.03091,-0.0929 -0.185679,-0.0929 -0.138957,0 -0.185681,0.0187 -0.185681,0.074 0,0.0407 -0.04181,0.0849 -0.09285,0.0983 -0.107946,0.0282 -0.113747,0.16483 -0.06234,1.46827 l 0.03054,0.77335 0.317657,0 0.317649,0 1.87e-4,-0.73112 8e-6,0 z m 1.129864,0.34815 c 0.01634,-0.21063 0.02993,-0.71197 0.03008,-1.11409 1.65e-4,-0.61906 -0.01038,-0.73112 -0.06935,-0.73112 -0.03867,0 -0.06965,-0.0413 -0.06965,-0.0928 0,-0.0791 -0.03091,-0.0929 -0.20889,-0.0929 -0.177946,0 -0.20889,0.0138 -0.20889,0.0929 0,0.0516 -0.0309,0.0928 -0.06965,0.0928 -0.0595,0 -0.06965,0.1308 -0.06965,0.89872 0,0.4943 0.01329,0.99563 0.02957,1.11409 l 0.02957,0.21537 0.288543,0 0.288542,0 0.02979,-0.38297 z m -4.984446,-2.56893 c -0.03027,-0.0917 -0.03711,-0.18237 -0.01521,-0.20146 0.02191,-0.0192 0.698597,-0.26934 1.503756,-0.55611 l 1.463937,-0.5214 1.482099,0.53219 c 0.815156,0.2927 1.490162,0.55638 1.500024,0.58595 0.02449,0.0734 -0.08471,0.32757 -0.140733,0.32757 -0.02493,0 -0.664697,-0.2228 -1.421796,-0.49514 -0.757107,-0.27233 -1.397631,-0.49515 -1.423393,-0.49515 -0.02575,0 -0.664943,0.22281 -1.420392,0.49515 -0.755458,0.27233 -1.395991,0.49514 -1.423409,0.49514 -0.02743,0 -0.07462,-0.075 -0.104888,-0.16674 z"
         style="fill:#000000" />
      <g
         id="g4975"
         transform="matrix(0.11812497,0,0,0.11812497,192.15296,605.32169)">
        <path
           id="path4977"
           d="m -518.89278,-159.41484 27.6655,25.75755 34.5819,-9.06285 10.0169,-35.29739 -26.2345,-25.51909 -36.0129,7.63187 -0.4771,0 -9.5398,36.48991 z"
           style="fill:url(#radialGradient5086);fill-opacity:1;fill-rule:evenodd;stroke:#000000;stroke-width:0.60616255px;stroke-linecap:butt;stroke-linejoin:miter;stroke-opacity:1"
           inkscape:export-filename="/home/tonyg/documents/work/backupbrain/logo-1.png"
           inkscape:export-xdpi="90"
           inkscape:export-ydpi="90" />
        <path
           d="m -464.27018,-195.24406 c 0,0 0.9524,5.23839 -1.9049,8.33378 -2.8572,3.0954 -13.3339,13.57214 -14.2864,15.23889 -0.9524,1.66676 -4.7621,6.1908 -3.5715,9.04809 1.1904,2.85729 2.6191,3.0954 2.6191,3.0954 0,0 -3.8097,0.95243 -4.286,2.38108 -0.4761,1.42864 -2.3811,6.90513 -2.3811,6.90513 0,0 0,-5.7146 -1.1904,-5.9527 -1.1906,-0.23811 -7.8576,5.47647 -9.2863,6.90512 -1.4287,1.42864 -3.5716,4.76216 -3.5716,4.76216 0,0 -0.2381,-2.61919 -1.4287,-2.61919 -1.1905,0 -4.0478,-0.2381 -4.0478,-0.2381 l 16.4295,15.477 c 0,0 2.1429,-1.66677 0.9524,-2.85731 -1.1905,-1.19052 -4.7621,-1.90485 -4.5241,-3.5716 0.2382,-1.66676 2.6193,-9.04809 2.6193,-9.04809 l -1.1906,-1.42865 c 0,0 2.6192,-0.23812 2.6192,1.90486 0,2.14297 -2.3812,5.9527 -1.9049,8.09565 0.4763,2.14298 3.5716,2.38108 3.8097,4.28595 0.2381,1.90486 0,2.14296 0,2.14296 l 15.9532,-5.23836 c 0,0 -5.0002,-1.90486 -6.4288,-0.71432 -1.4287,1.19053 -2.8574,2.14296 -2.8574,2.14296 0,0 -0.4762,-1.90486 -1.4286,-1.90486 -0.9524,0 -4.7621,-0.71433 -4.7621,-0.71433 0,0 7.8575,0.47623 8.3337,-0.95242 0.4763,-1.42865 -1.6667,-2.38108 -1.6667,-2.38108 0,0 -2.143,0.23811 -3.5716,-1.42864 -1.4287,-1.66676 -3.5717,-5.9527 -3.5717,-5.9527 0,0 2.8573,1.90486 3.5717,3.33352 0.7143,1.42864 3.8097,1.90485 3.8097,1.90485 0,0 0,-3.80972 0.7143,-2.85729 0.7143,0.95244 0.9524,5.00026 1.9049,5.71458 0.9524,0.71433 5.0002,2.61918 5.4765,0.95243 0.4761,-1.66675 2.6191,-6.1908 4.0477,-5.00026 1.4287,1.19054 6.1909,3.57162 6.6671,2.38108 0.4762,-1.19054 1.1905,-6.42891 1.1905,-6.42891 l 2.3811,2.14298 3.8097,0.2381 2.8573,-9.76242 -3.5716,-1.19052 c 0,0 3.5716,-0.47623 4.0478,-1.66677 0.4762,-1.19054 2.8573,-9.04809 2.8573,-9.04809 0,0 -3.3335,4.52405 -4.7621,5.23837 -1.4287,0.71433 -2.8573,-0.23811 -2.8573,-0.23811 0,0 3.5716,-2.14296 4.524,-3.3335 0.9524,-1.19054 4.0479,-4.52405 3.5716,-6.66701 -0.4762,-2.14297 -2.381,-3.33351 -2.381,-3.33351 l -3.8097,2.85729 c 0,0 0,-2.61919 0.9524,-4.52404 0.9524,-1.90487 1.1906,-5.47648 1.1906,-5.47648 l -11.6674,-10.95297 z m -11.9054,34.76374 c 0,0 3.3335,-0.47623 5.0003,-2.85731 1.6668,-2.38106 6.9051,-7.85755 9.5242,-9.04808 2.6193,-1.19054 3.5717,-0.71432 3.5717,-0.71432 l -2.8573,4.52405 c 0,0 -1.1905,-2.38108 -2.3811,-0.95244 -1.1904,1.42865 -7.1431,6.90512 -7.3813,8.09566 -0.2381,1.19054 -0.7144,2.14296 -0.7144,2.14296 0,0 4.286,-0.47621 4.5241,0.95245 0.2382,1.42863 -1.1905,3.5716 -1.1905,3.5716 0,0 -0.238,-2.85728 -1.6667,-3.5716 -1.4287,-0.71433 -6.429,-2.14297 -6.429,-2.14297 z m 28.8111,-14.04836 1.1905,-3.5716 -3.5717,-2.6192 c 0,0 0.9526,1.66676 1.1906,3.33351 0.2381,1.66675 1.1906,3.33351 1.1906,2.85729 z m -19.2867,-23.57266 c 0,0 0.238,9.04809 -1.6667,11.42917 -1.905,2.38108 -6.6671,1.19054 -6.6671,1.19054 0,0 -5.9527,0.95243 -6.667,-0.23811 -0.7143,-1.19054 -2.143,-2.61918 -2.143,-2.61918 0,0 -0.238,0.71431 1.1905,3.3335 1.4286,2.61919 4.7622,4.28594 4.2859,5.71458 -0.4761,1.42866 -2.8573,6.42891 -4.524,9.04811 -1.6667,2.61917 -1.6667,6.9051 -3.3334,8.57187 -1.6669,1.66675 -7.3814,4.28593 -9.2863,3.80972 -1.9048,-0.47621 -7.1432,-3.80972 -7.1432,-3.80972 l -1.6667,-1.90487 0,-5.23837 0.4761,-0.95242 c 0,0 5.9527,1.42864 5.9527,3.3335 0,1.90487 2.3811,2.61918 2.3811,2.61918 0,0 0,-4.76214 -1.4287,-5.71458 -1.4286,-0.95243 -7.3812,-5.47647 -7.6194,-6.66701 -0.2381,-1.19054 -2.381,-5.23837 -2.143,-7.14324 0.2382,-1.90486 3.3336,-3.57161 4.286,-6.4289 0.9524,-2.8573 0.8146,-7.08677 0.8146,-7.08677 0,0 -0.2381,-1.19053 0.9524,-1.66675 1.1905,-0.47621 10.4078,-2.27458 10.4078,-2.27458 0,0 1.3973,1.02758 0.2069,2.93243 -1.1906,1.90487 -5.2384,5.23837 -5.4766,6.42891 -0.2381,1.19054 0.2382,3.80972 0.9525,2.61918 0.7143,-1.19052 0.2381,-2.61918 0.9524,-3.80972 0.7143,-1.19053 3.5717,-4.76215 5.0002,-6.42891 1.4286,-1.66675 0.9525,-2.38106 0.9525,-2.38106 l 7.3814,-1.90487 -0.2382,7.61944 c 0,0 -2.6192,0 -2.3811,0.95244 0.2381,0.95243 1.1906,2.14296 2.8573,3.09539 1.6667,0.95244 3.8097,2.61919 3.3335,0.71432 -0.4762,-1.90486 -1.9048,-2.14296 -1.6668,-4.04783 0.2382,-1.90486 0.2382,-8.57187 0.2382,-8.57187 l 5.0002,-0.71431 6.429,6.19079 z m -34.7638,14.52457 c 0,0 3.3336,3.33351 4.7622,3.57162 1.4287,0.2381 2.6191,-1.90486 2.6191,-1.90486 0,0 1.905,4.52404 2.8574,6.90512 0.9524,2.38108 3.5716,4.28594 2.8573,6.66701 -0.7144,2.38108 -2.143,-2.14297 -2.143,-2.14297 0,0 0.7143,-2.38108 -1.9049,-3.80972 -2.6191,-1.42865 -6.4289,-3.3335 -6.9051,-5.23837 -0.4762,-1.90486 -2.143,-3.80973 -2.143,-4.04783 z m -17.6199,24.04887 c 0,0 3.0954,-3.0954 4.7621,-4.76215 1.6667,-1.66675 8.0957,-5.47647 8.0957,-8.80998 0,-3.3335 -2.8573,-5.71458 -3.8097,-6.19081 -0.9524,-0.47621 -4.0479,-1.19052 -4.0479,-1.19052 l -5.0002,20.95346 z m 5.7145,-23.33454 c 0,0 3.5716,0.95243 4.524,0 0.9526,-0.95244 2.143,-4.04784 2.143,-4.04784 l -1.1904,-4.04784 c 0,0 1.9048,2.14297 3.3334,1.66676 1.4287,-0.47621 2.143,-5.47647 2.143,-5.47647 l -1.1906,-2.61919 -6.1908,0.95244 -3.5716,13.57214 z m -2.3811,27.62048 4.7623,4.52404 c 0,0 3.5715,0.23812 4.2858,-1.90485 0.7144,-2.14298 0.2382,-8.80999 0.9525,-6.66703 0.7144,2.14298 3.8098,3.57162 3.8098,3.57162 0,0 -0.9526,-1.90485 -0.9526,-3.3335 0,-1.42864 -2.8572,-6.90512 -2.8572,-6.90512 0,0 -1.1905,-0.95243 -3.3335,0 -2.143,0.95242 -5.9527,4.76215 -5.9527,4.76215 l -1.4287,3.33351 c 0,0 4.286,0.47621 4.5241,1.66675 0.2382,1.19054 -3.5716,1.42864 -3.8098,0.95243 z"
           style="fill:#e49797;fill-opacity:1;fill-rule:evenodd;stroke:#000000;stroke-width:0.61969984px;stroke-linecap:butt;stroke-linejoin:miter;stroke-opacity:1"
           id="path4979"
           inkscape:export-filename="/home/tonyg/documents/work/backupbrain/logo-1.png"
           inkscape:export-xdpi="90"
           inkscape:export-ydpi="90"
           sodipodi:nodetypes="cssscscsscsccssccsssccscscscscscssssscccccscscssccscccssccsscscsccccsccscscsssssccccscsssscscssssscccssssccccscsscssccssscccsccsccccccsscscsccsc" />
        <path
           id="path4981"
           d="m -472.90518,-204.17001 -4.9963,0.69717 c 0,0 -0.0136,6.67411 -0.2516,8.57896 -0.2382,1.90487 1.1891,2.14256 1.6654,4.04742 0.4762,1.90487 -1.6642,0.23591 -3.331,-0.71653 -1.6667,-0.95242 -2.6085,-2.14606 -2.8467,-3.0985 -0.2381,-0.95242 2.3819,-0.9489 2.3819,-0.94891 l 0.2325,-7.61069 -7.3783,1.89783 c 0,0 0.4798,0.71522 -0.9489,2.38197 -1.4287,1.66676 -4.3014,5.23886 -5.0158,6.42939 -0.7143,1.19054 -0.2346,2.62449 -0.9489,3.81503 -0.7143,1.19054 -1.187,-1.42384 -0.9489,-2.61436 0.2382,-1.19054 4.2899,-4.52452 5.4805,-6.42939 1.1905,-1.90486 0,-2.76928 0,-2.76928 0,0 -9.2862,1.55717 -10.4768,2.03338 -1.1905,0.47623 -0.949,2.63373 -0.949,2.63373 0,0 -0.0158,3.33971 -0.9682,6.197 -0.0595,0.17858 -0.1187,0.35325 -0.1937,0.52288 l 7.9787,8.11419 c 0.3409,-0.41395 0.5615,-0.79399 0.5615,-0.79399 0,0 0.4436,1.10497 0.9684,2.36261 l 9.8377,9.99266 c 0.1173,-0.23801 0.2489,-0.46031 0.3873,-0.67779 1.6668,-2.61919 4.036,-7.6151 4.5123,-9.04375 0.4761,-1.42864 -2.8512,-3.09367 -4.2799,-5.71286 -1.4286,-2.61919 -1.1812,-3.35026 -1.1812,-3.35026 0,0 1.4158,1.44319 2.1302,2.63373 0.7143,1.19054 6.6616,0.23239 6.6616,0.23239 0,0 4.7764,1.18041 6.6812,-1.20067 1.9049,-2.38107 1.6655,-11.42573 1.6655,-11.42573 l -6.4295,-6.17763 z m -30.4814,6.89416 -6.1196,0.92956 6.0615,6.17762 c 0.8258,-1.59503 1.2394,-4.49282 1.2394,-4.49282 l -1.1813,-2.61436 z m 39.2928,2.14959 c 0,1e-5 0.9401,5.23182 -1.9172,8.32722 -2.8572,3.0954 -13.3199,13.574 -14.2725,15.24075 -0.2813,0.49251 -0.836,1.25543 -1.4136,2.13022 l 27.228,-6.197 c 0.1136,-0.90957 0.3548,-2.08451 0.8522,-3.07914 0.9523,-1.90485 1.1812,-5.48047 1.1812,-5.48047 l -11.6581,-10.94158 z m 14.5242,14.52422 c 0,0 0.9432,1.66413 1.1814,3.33089 0.012,0.0841 0.0232,0.1679 0.0387,0.25176 l 2.1883,-0.50351 0.1549,-0.46478 -3.5633,-2.61436 z m -1.2006,3.56328 -1.0845,0.81335 1.6461,-0.36795 c -0.319,-0.2762 -0.5616,-0.4454 -0.5616,-0.4454 z"
           style="fill:url(#linearGradient5088);fill-opacity:1;fill-rule:evenodd;stroke:none"
           inkscape:export-filename="/home/tonyg/documents/work/backupbrain/logo-1.png"
           inkscape:export-xdpi="90"
           inkscape:export-ydpi="90" />
        <path
           id="path4983"
           d="m -446.47338,-178.29596 -2.169,0.58097 c 0.0223,0.1128 0.0419,0.23523 0.0581,0.34858 0.2381,1.66673 1.2008,3.32295 1.2008,2.84674 l 1.1812,-3.56327 -0.2711,-0.21302 z m -4.4735,1.1813 -0.0581,0.0194 -3.7763,2.80801 c 0,0 0.006,-0.81945 0.1744,-1.87846 l -27.7317,7.30083 c -0.3663,0.58213 -0.7129,1.20597 -1.0264,1.83974 l -0.852,3.91185 c 0.0367,0.16965 0.0882,0.34352 0.1549,0.50351 1.1906,2.85728 2.6144,3.09849 2.6144,3.09849 0,0 -2.9379,0.72748 -3.97,1.87847 l -2.014,9.1793 c 0.8342,0.66859 1.8124,1.5139 2.1883,2.26578 0.7144,1.42864 3.7957,1.9172 3.7957,1.9172 0,0 0.002,-3.81855 0.7165,-2.86612 0.7143,0.95244 0.9648,4.99855 1.9172,5.71286 0.9524,0.71433 4.9848,2.61568 5.4611,0.94892 0.4763,-1.66675 2.6187,-6.18687 4.0474,-4.99633 1.4286,1.19054 6.205,3.57251 6.6811,2.38197 0.4763,-1.19054 1.1814,-6.42939 1.1814,-6.42939 l 2.3819,2.14959 3.815,0.23238 2.8468,-9.76027 -3.5632,-1.1813 c 0,0 3.5712,-0.49426 4.0473,-1.6848 0.4763,-1.19054 2.8468,-9.04375 2.8468,-9.04375 0,-1e-5 -3.316,4.53376 -4.7446,5.24809 -1.4287,0.71431 -2.8661,-0.25176 -2.8661,-0.25176 0,0 3.5791,-2.14035 4.5316,-3.33089 0.9524,-1.19055 4.0395,-4.51881 3.5632,-6.66177 -0.4677,-2.10461 -2.2966,-3.26973 -2.3626,-3.31152 z m -7.9592,3.93122 c 0.5654,-0.0298 0.7939,0.0968 0.7939,0.0968 l -2.8466,4.53156 c 0,0 -1.1916,-2.39695 -2.382,-0.96829 -1.1906,1.42865 -7.1403,6.9043 -7.3783,8.09483 -0.2382,1.19053 -0.7166,2.14958 -0.7166,2.14958 0,0 4.2741,-0.47973 4.5122,0.94891 0.2382,1.42866 -1.1813,3.58264 -1.1813,3.58264 0,2e-5 -0.2367,-2.86831 -1.6654,-3.58264 -1.4287,-0.71431 -6.4295,-2.13022 -6.4295,-2.13022 0,0 3.3296,-0.48502 4.9964,-2.8661 1.6668,-2.38106 6.9087,-7.8532 9.5279,-9.04374 1.3096,-0.59527 2.2037,-0.78359 2.7693,-0.81336 z m -28.758,25.83373 -2.44,11.13523 c 0.6483,0.45254 1.184,0.95156 1.278,1.70418 0.2382,1.90486 0,2.13022 0,2.13022 l 15.9573,-5.22872 c 0,0 -5.0007,-1.90707 -6.4293,-0.71653 -1.4287,1.19053 -2.8662,2.14959 -2.8662,2.14959 0,-2e-5 -0.4612,-1.9172 -1.4137,-1.9172 -0.9524,0 -4.7638,-0.71653 -4.7638,-0.71653 0,0 7.8509,0.47973 8.3272,-0.94891 0.4761,-1.42865 -1.6655,-2.38198 -1.6655,-2.38198 0,0 -2.1346,0.25307 -3.5633,-1.41369 -0.7552,-0.88112 -1.6883,-2.47074 -2.4207,-3.79566 z m -2.7306,12.47146 -0.6197,2.80801 c 0.4555,-0.39875 1.7575,-1.68961 0.7553,-2.69181 -0.0403,-0.0403 -0.09,-0.077 -0.1356,-0.1162 z"
           style="fill:url(#linearGradient5090);fill-opacity:1;fill-rule:evenodd;stroke:none"
           inkscape:export-filename="/home/tonyg/documents/work/backupbrain/logo-1.png"
           inkscape:export-xdpi="90"
           inkscape:export-ydpi="90" />
        <path
           id="path4985"
           d="m -510.05128,-196.18283 -3.4277,13.03307 c 0,0 3.5598,0.95243 4.5121,0 0.9526,-0.95243 2.1497,-4.04742 2.1497,-4.04742 l -1.2007,-4.04742 c 0,0 1.9216,2.14167 3.3502,1.66544 0.2358,-0.0786 0.4423,-0.27948 0.6392,-0.5616 l -6.0228,-6.04207 z m 7.0878,7.10719 c -1.2276,2.28024 -3.6443,3.76583 -3.8537,5.44174 -0.2382,1.90487 1.9115,5.95537 2.1495,7.14591 0.2382,1.19054 6.1821,5.70936 7.6108,6.66178 1.4286,0.95242 1.433,5.71286 1.433,5.71286 0,0 -2.382,-0.70951 -2.382,-2.61436 0,-1.90487 -5.9645,-3.3309 -5.9645,-3.33089 l -0.4648,0.94892 0,5.24808 1.6654,1.89783 c 0,0 5.241,3.33882 7.1459,3.81502 1.9048,0.47622 7.6095,-2.14828 9.2762,-3.81502 1.4765,-1.47656 1.6492,-5.00284 2.8273,-7.61069 l -9.2955,-9.33423 c 0.5193,1.25027 1.0764,2.63276 1.4717,3.62137 0.9526,2.38108 3.5805,4.2807 2.8662,6.66178 -0.7142,2.38108 -2.1496,-2.14959 -2.1496,-2.14959 0,0 0.7214,-2.38638 -1.8978,-3.81503 -2.6191,-1.42864 -6.4372,-3.32384 -6.9135,-5.22871 -0.4763,-1.90486 -2.1497,-3.80931 -2.1497,-4.04742 0,1e-5 3.3354,3.32517 4.764,3.56328 0.6869,0.11448 1.3302,-0.31046 1.8011,-0.79399 l -7.94,-7.97864 z m -11.232,8.30785 -4.9963,20.95361 c -10e-5,-1e-5 3.0778,-3.0972 4.7445,-4.76394 1.6667,-1.66676 8.0949,-5.47787 8.0949,-8.81137 0,-3.33351 -2.8433,-5.72079 -3.7957,-6.197 -0.9524,-0.47622 -4.0474,-1.1813 -4.0474,-1.1813 z m 30.6558,13.5172 c -0.6522,1.33857 -1.0715,2.72412 -0.7941,3.89249 l 0.7941,-3.89249 z m -23.6649,0.58097 c -0.5231,-0.0279 -1.1909,0.0689 -1.9946,0.42605 -2.143,0.95244 -5.9452,4.76395 -5.9452,4.76395 l -1.4331,3.33087 c 0,1e-5 4.2741,0.47492 4.5122,1.66544 0.2233,1.11615 -3.1043,1.38826 -3.7183,1.02639 l 4.6866,4.45408 c 0,2e-5 3.5655,0.22578 4.2798,-1.91719 0.7143,-2.14295 0.2346,-8.80474 0.9489,-6.66176 0.7144,2.14296 3.8151,3.56327 3.8151,3.56327 0,0 -0.949,-1.90224 -0.949,-3.33089 0,-1.42865 -2.8661,-6.89416 -2.8661,-6.89416 0,0 -0.4642,-0.37954 -1.3363,-0.42605 z m 21.767,8.59834 c -0.2073,0.19673 -0.3523,0.41769 -0.426,0.63906 -0.4763,1.42864 -2.382,6.89416 -2.382,6.89416 0,1e-5 -0.0101,-5.70713 -1.2007,-5.94525 -1.1905,-0.23809 -7.8475,5.46552 -9.2761,6.89416 -1.4287,1.42865 -3.5633,4.76395 -3.5633,4.76395 0,1e-5 -0.2425,-2.61436 -1.4331,-2.61436 -1.1904,1e-5 -4.0473,-0.23239 -4.0473,-0.23239 l 16.4219,15.47314 c 2e-4,0 0.3578,-0.27287 0.6973,-0.6778 l 0.4067,-1.99467 c -0.0443,-0.0632 -0.094,-0.13265 -0.155,-0.19365 -1.1905,-1.19054 -4.7503,-1.89652 -4.5122,-3.56327 0.2382,-1.66676 2.6144,-9.04375 2.6144,-9.04375 l -1.2007,-1.43305 c 0,0 2.6338,-0.24515 2.6338,1.89783 0,2.14296 -2.3934,5.95185 -1.9173,8.09483 0.3183,1.43203 1.8043,2.03079 2.8274,2.82738 l 2.3046,-11.07713 c -0.7414,-1.32231 -1.317,-2.45944 -1.317,-2.45944 0,0 0.7402,0.51994 1.5686,1.20067 l 1.956,-9.45042 z"
           style="fill:url(#linearGradient5092);fill-opacity:1;fill-rule:evenodd;stroke:none"
           inkscape:export-filename="/home/tonyg/documents/work/backupbrain/logo-1.png"
           inkscape:export-xdpi="90"
           inkscape:export-ydpi="90" />
      </g>
      <g
         transform="matrix(0.02543689,0,0,0.02543689,128.82583,625.84346)"
         id="g5801">
        <g
           id="g5424"
           transform="matrix(1.25,0,0,-1.25,747.29158,311.68486)">
          <path
             d="m 0,0 c 0,-8.05 -6.524,-14.573 -14.569,-14.573 -8.049,0 -14.568,6.523 -14.568,14.573 0,8.044 6.519,14.568 14.568,14.568 C -6.524,14.568 0,8.044 0,0"
             style="fill:#8fc74d;fill-opacity:1;fill-rule:evenodd;stroke:none"
             id="path5426" />
        </g>
        <g
           id="g5428"
           transform="matrix(1.25,0,0,-1.25,747.29158,311.68486)">
          <path
             d="m 0,0 c 0,-8.05 -6.524,-14.573 -14.569,-14.573 -8.049,0 -14.568,6.523 -14.568,14.573 0,8.044 6.519,14.568 14.568,14.568 C -6.524,14.568 0,8.044 0,0 z"
             style="fill:none;stroke:#f3f4f5;stroke-width:1;stroke-linecap:butt;stroke-linejoin:miter;stroke-miterlimit:10;stroke-opacity:1;stroke-dasharray:none"
             id="path5430" />
        </g>
        <g
           id="g5432"
           transform="matrix(1.25,0,0,-1.25,715.40621,347.65161)">
          <path
             d="m 0,0 c 0,-4.795 -3.887,-8.683 -8.682,-8.683 -4.795,0 -8.685,3.888 -8.685,8.683 0,4.802 3.89,8.688 8.685,8.688 C -3.887,8.688 0,4.802 0,0"
             style="fill:#c660a4;fill-opacity:1;fill-rule:evenodd;stroke:none"
             id="path5434" />
        </g>
        <g
           id="g5436"
           transform="matrix(1.25,0,0,-1.25,715.40621,347.65161)">
          <path
             d="m 0,0 c 0,-4.795 -3.887,-8.683 -8.682,-8.683 -4.795,0 -8.685,3.888 -8.685,8.683 0,4.802 3.89,8.688 8.685,8.688 C -3.887,8.688 0,4.802 0,0 z"
             style="fill:none;stroke:#f3f4f5;stroke-width:1;stroke-linecap:butt;stroke-linejoin:miter;stroke-miterlimit:10;stroke-opacity:1;stroke-dasharray:none"
             id="path5438" />
        </g>
        <g
           id="g5440"
           transform="matrix(1.25,0,0,-1.25,688.59708,371.51886)">
          <path
             d="m 0,0 c 0,-3.502 -2.842,-6.346 -6.344,-6.346 -3.506,0 -6.346,2.844 -6.346,6.346 0,3.504 2.84,6.347 6.346,6.347 C -2.842,6.347 0,3.504 0,0"
             style="fill:#39ade3;fill-opacity:1;fill-rule:evenodd;stroke:none"
             id="path5442" />
        </g>
        <g
           id="g5444"
           transform="matrix(1.25,0,0,-1.25,688.59708,371.51886)">
          <path
             d="m 0,0 c 0,-3.502 -2.842,-6.346 -6.344,-6.346 -3.506,0 -6.346,2.844 -6.346,6.346 0,3.504 2.84,6.347 6.346,6.347 C -2.842,6.347 0,3.504 0,0 z"
             style="fill:none;stroke:#f3f4f5;stroke-width:1;stroke-linecap:butt;stroke-linejoin:miter;stroke-miterlimit:10;stroke-opacity:1;stroke-dasharray:none"
             id="path5446" />
        </g>
        <g
           id="g5448"
           transform="matrix(1.25,0,0,-1.25,754.53396,270.14186)">
          <path
             d="m 0,0 c 0.088,0.006 0.178,0.009 0.265,0.013 7.365,-18.02 24.272,-30.872 43.718,-33.011 29.326,-3.222 55.804,18.011 59.028,47.336 1.201,10.94 -0.916,21.722 -6.127,31.317 7.2,10.151 11.505,21.241 12.798,32.996 5.572,50.711 -47.703,98.319 -118.763,106.129 -3.435,0.38 -6.846,0.654 -10.234,0.835 1.247,-2.152 2.45,-4.38 3.627,-6.67 1.96,-0.149 3.928,-0.329 5.906,-0.546 C 57.756,170.975 108.482,126.544 103.296,79.353 102.06,68.091 97.754,57.476 90.495,47.799 l -1.286,-1.721 1.096,-1.847 C 95.57,35.387 97.756,25.293 96.627,15.042 93.794,-10.764 70.488,-29.452 44.687,-26.617 26.859,-24.655 6.317,-12.331 0.305,4.573 L -0.94,9.636"
             style="fill:#37abe1;fill-opacity:1;fill-rule:nonzero;stroke:none"
             id="path5450" />
        </g>
        <g
           id="g5452"
           transform="matrix(1.25,0,0,-1.25,757.28671,257.59911)">
          <path
             d="m 0,0 3.048,-7.422 c 6.555,-17.36 23.104,-29.972 42.158,-32.126 27.588,-3.116 52.326,15.828 55.147,42.233 1.124,10.49 -1.295,20.846 -6.985,29.947 l -1.187,1.9 1.359,1.753 c 7.676,9.848 12.192,20.685 13.422,32.209 5.161,48.29 -49.379,94.213 -121.581,102.371 -72.202,8.161 -135.141,-24.484 -140.304,-72.769 -5.16,-48.29 49.381,-94.215 121.583,-102.376 11.027,-1.244 19.392,3.259 30.197,3.882 L 0,0 z m 44.51,-46.08 c -20.788,2.351 -38.955,15.652 -46.962,34.17 -10.405,-0.465 -21.016,-0.094 -31.585,1.102 -75.964,8.586 -135.825,57.783 -130.278,109.671 5.545,51.89 74.431,87.118 150.393,78.533 75.965,-8.584 133.254,-57.785 127.706,-109.673 -1.285,-12.029 -5.792,-23.354 -13.407,-33.686 5.649,-9.87 7.996,-20.93 6.8,-32.126 C 103.971,-28.091 75.855,-49.622 44.51,-46.08"
             style="fill:#ea2f91;fill-opacity:1;fill-rule:nonzero;stroke:none"
             id="path5454" />
        </g>
        <g
           id="g5456"
           transform="matrix(1.25,0,0,-1.25,718.15946,256.7636)">
          <path
             d="m 0,0 c -66.757,7.043 -116.898,49.192 -111.772,93.96 4.977,43.454 62.211,79.061 126.506,74.348 -1.161,2.171 -4.327,-1.131 -5.559,0.912 -69.434,6.521 -126.258,-27.555 -128.581,-74.46 -2.395,-48.357 48.477,-93.404 118.713,-100.813 9.684,-1.021 19.412,-1.29 28.958,-0.804 0.53,2.038 -0.585,3.701 -0.106,5.79 C 18.363,-1.672 9.973,-1.05 0,0"
             style="fill:#37abe1;fill-opacity:1;fill-rule:nonzero;stroke:none"
             id="path5458" />
        </g>
        <g
           id="g5460"
           transform="matrix(1.25,0,0,-1.25,753.35846,258.09723)">
          <path
             d="m 0,0 0.815,-2.262 c 6.007,-16.681 21.434,-28.692 39.309,-30.598 25.879,-2.759 49.28,15.725 52.167,41.205 1.146,10.126 -1.028,20.086 -6.292,28.81 l -1.103,1.823 1.296,1.698 c 7.295,9.566 11.632,20.054 12.89,31.175 5.278,46.598 -45.531,90.384 -113.265,97.609 -67.734,7.226 -127.133,-24.809 -132.41,-71.404 -5.278,-46.598 45.535,-90.387 113.269,-97.614 10.345,-1.102 20.737,-1.308 30.891,-0.609 L 0,0 z m 39.412,-39.16 c -19.503,2.079 -36.442,14.743 -43.799,32.52 -9.774,-0.539 -19.736,-0.277 -29.652,0.782 -71.264,7.6 -124.627,54.522 -118.955,104.595 5.671,50.072 68.262,84.625 139.523,77.024 71.265,-7.6 124.627,-54.522 118.956,-104.596 C 104.173,59.56 99.838,48.603 92.595,38.573 97.809,29.104 99.917,18.464 98.694,7.663 95.413,-21.294 68.818,-42.299 39.412,-39.16"
             style="fill:#c3d842;fill-opacity:1;fill-rule:nonzero;stroke:none"
             id="path5462" />
        </g>
      </g>
      <path
         sodipodi:nodetypes="cc"
         style="fill:none;stroke:#000000;stroke-width:0.60000002;stroke-linecap:butt;stroke-linejoin:miter;stroke-miterlimit:4;stroke-opacity:1;stroke-dasharray:0.6, 1.2;stroke-dashoffset:0"
         d="m 180.31807,624.52059 6.14409,-11.36014"
         id="path5833" />
      <g
         id="g5835"
         transform="translate(-9.9173918,72.669223)">
        <text
           sodipodi:linespacing="100%"
           id="text5837"
           y="556.06494"
           x="94.284821"
           style="font-size:2.96622905px;font-style:normal;font-variant:normal;font-weight:bold;font-stretch:normal;text-align:start;line-height:100%;writing-mode:lr;text-anchor:start;fill:#000000;fill-opacity:1;stroke:none;font-family:Arial;-inkscape-font-specification:Arial Bold"
           xml:space="preserve"><tspan
             y="556.06494"
             x="94.284821"
             id="tspan5839"
             sodipodi:role="line">uOttawa</tspan></text>
        <text
           xml:space="preserve"
           style="font-size:2.69657186px;font-style:normal;font-weight:normal;fill:#000000;fill-opacity:1;stroke:none;font-family:Arial;-inkscape-font-specification:Arial;font-stretch:normal;font-variant:normal;text-anchor:start;text-align:start;writing-mode:lr;line-height:125%"
           x="94.309349"
           y="558.97546"
           id="text5841"
           sodipodi:linespacing="125%"><tspan
             sodipodi:role="line"
             id="tspan5843"
             x="94.309349"
             y="558.97546">Majored in Software Engineering</tspan><tspan
             id="tspan5845"
             sodipodi:role="line"
             x="94.309349"
             y="561.86151">Then studied Pure Math and Psychology</tspan></text>
        <rect
           ry="1.864216"
           rx="1.864216"
           y="552.06549"
           x="81.360802"
           height="12.853271"
           width="64.192215"
           id="rect5847"
           style="fill:none;stroke:#343f53;stroke-width:0.60000002;stroke-miterlimit:4;stroke-opacity:1;stroke-dasharray:none" />
      </g>
      <g
         transform="matrix(1,0,0,-1,0.009692,1214.4529)"
         id="g5891">
        <path
           sodipodi:nodetypes="cc"
           id="path5893"
           d="m 76.156154,603.15904 0,-2.50744"
           style="fill:none;stroke:#798aa9;stroke-width:0.60000002;stroke-linecap:butt;stroke-linejoin:miter;stroke-miterlimit:4;stroke-opacity:1;stroke-dasharray:none" />
        <path
           transform="matrix(0.5933104,0,0,0.5933104,31.027508,243.97306)"
           sodipodi:open="true"
           sodipodi:end="9.424778"
           sodipodi:start="3.1525433"
           d="m 74.776829,599.60015 c 0.0078,-0.70817 0.588133,-1.27598 1.296311,-1.26822 0.708177,0.008 1.275981,0.58813 1.268226,1.29631 -0.0078,0.70818 -0.588134,1.27598 -1.296311,1.26823 -0.7027,-0.008 -1.268303,-0.57953 -1.268303,-1.28227"
           sodipodi:ry="1.2823452"
           sodipodi:rx="1.2823452"
           sodipodi:cy="599.6142"
           sodipodi:cx="76.059097"
           id="path5895"
           style="fill:none;stroke:#798aa9;stroke-width:1.01127505;stroke-linecap:round;stroke-miterlimit:4;stroke-opacity:1;stroke-dasharray:none"
           sodipodi:type="arc" />
      </g>
      <path
         id="path5897"
         d="m 90.134909,624.52059 -13.903086,-9.047"
         style="fill:none;stroke:#798aa9;stroke-width:0.60000002;stroke-linecap:butt;stroke-linejoin:miter;stroke-miterlimit:4;stroke-opacity:1;stroke-dasharray:0.6, 1.2;stroke-dashoffset:0"
         sodipodi:nodetypes="cc" />
      <path
         style="fill:#000000"
         d="m 74.42881,631.7705 0,-3.59758 0.464204,0 0.464204,0 0,-0.23211 0,-0.2321 0.452682,0 0.452694,0 0.162382,-0.21898 c 0.209322,-0.28228 0.578973,-0.53843 0.967929,-0.67073 0.418936,-0.1425 1.199141,-0.151 1.606783,-0.0175 0.370725,0.1214 0.800517,0.41671 0.999432,0.68673 l 0.162434,0.2205 0.452687,0 0.452686,0 0,0.2321 0,0.2321 0.464204,0 0.464198,0 0,3.59758 0,3.59757 -3.783258,0 -3.783261,0 0,-3.59757 z m 7.14874,0 0,-3.1798 -0.464205,0 -0.464205,0 0,-0.25531 0,-0.25531 -0.384014,0 -0.384022,0 -0.08987,-0.16688 c -0.131827,-0.24478 -0.501359,-0.55576 -0.803869,-0.67648 -0.382073,-0.15247 -1.168519,-0.15247 -1.550592,0 -0.302517,0.12072 -0.672042,0.4317 -0.803877,0.67648 l -0.08986,0.16688 -0.384022,0 -0.384014,0 0,0.25531 0,0.25531 -0.464203,0 -0.4642,0 0,3.1798 0,3.1798 3.365474,0 3.365479,0 0,-3.1798 z m -6.498853,2.59954 0,-0.11605 3.133374,0 3.133373,0 0,0.11605 0,0.11605 -3.133373,0 -3.133374,0 0,-0.11605 z m 0.185681,-0.37136 0,-0.11606 2.947693,0 2.947692,0 0,0.11606 0,0.11605 -2.947692,0 -2.947693,0 0,-0.11605 z m 0.18568,-0.58026 c 0,-0.16374 0.01285,-0.18568 0.108639,-0.18568 l 0.108634,0 0.03043,-1.07925 c 0.02949,-1.04713 0.02762,-1.08133 -0.06344,-1.15001 -0.05162,-0.0389 -0.106471,-0.14862 -0.121909,-0.24375 l -0.02806,-0.17295 2.727742,0 2.727733,0 -0.02807,0.17295 c -0.01545,0.0951 -0.07032,0.20482 -0.121906,0.24375 -0.09105,0.0687 -0.09294,0.10288 -0.06345,1.15001 l 0.03038,1.07925 0.108641,0 c 0.09579,0 0.108632,0.022 0.108632,0.18568 l 0,0.18568 -2.762012,0 -2.762012,0 0,-0.18568 z m 1.362821,-0.35975 c 0.01582,-0.0958 0.02896,-0.59709 0.02926,-1.1141 3.72e-4,-0.80484 -0.0095,-0.94 -0.06912,-0.94 -0.03867,0 -0.06965,-0.0412 -0.06965,-0.0929 0,-0.0791 -0.0309,-0.0929 -0.208898,-0.0929 -0.114888,0 -0.206418,0.0157 -0.203395,0.0348 0.01508,0.0958 -0.01232,0.15088 -0.07513,0.15088 -0.05898,0 -0.06958,0.11206 -0.06935,0.73112 1.41e-4,0.40211 0.01374,0.90345 0.03008,1.11409 l 0.02978,0.38296 0.288774,0 0.288781,0 0.02874,-0.17407 z m 1.159844,-0.52963 c 0.0168,-0.38701 0.03046,-0.88592 0.03046,-1.10866 0,-0.36595 -0.009,-0.40733 -0.09284,-0.42927 -0.05106,-0.0134 -0.09285,-0.0576 -0.09285,-0.0983 0,-0.0553 -0.04673,-0.074 -0.185681,-0.074 -0.154737,0 -0.185681,0.0156 -0.185681,0.0929 0,0.0641 -0.03091,0.0929 -0.09972,0.0929 -0.09637,0 -0.09873,0.0129 -0.06988,0.38295 0.01642,0.21064 0.02993,0.71198 0.03008,1.11409 l 1.87e-4,0.73113 0.317693,0 0.317695,0 0.03046,-0.70369 8e-6,0 z m 1.144824,-0.0274 c 1.42e-4,-0.40212 0.01374,-0.90346 0.03008,-1.11409 0.02882,-0.37008 0.02642,-0.38297 -0.06994,-0.38297 -0.06875,0 -0.09972,-0.0288 -0.09972,-0.0928 0,-0.0774 -0.03091,-0.0929 -0.185679,-0.0929 -0.138957,0 -0.185681,0.0187 -0.185681,0.074 0,0.0407 -0.04181,0.0849 -0.09285,0.0983 -0.107946,0.0282 -0.113747,0.16483 -0.06234,1.46827 l 0.03054,0.77335 0.317657,0 0.317649,0 1.87e-4,-0.73112 8e-6,0 z m 1.129864,0.34815 c 0.01634,-0.21063 0.02993,-0.71197 0.03008,-1.11409 1.65e-4,-0.61906 -0.01038,-0.73112 -0.06935,-0.73112 -0.03867,0 -0.06965,-0.0413 -0.06965,-0.0928 0,-0.0791 -0.03091,-0.0929 -0.20889,-0.0929 -0.177946,0 -0.20889,0.0138 -0.20889,0.0929 0,0.0516 -0.0309,0.0928 -0.06965,0.0928 -0.0595,0 -0.06965,0.1308 -0.06965,0.89872 0,0.4943 0.01329,0.99563 0.02957,1.11409 l 0.02957,0.21537 0.288543,0 0.288542,0 0.02979,-0.38297 z m -4.984446,-2.56893 c -0.03027,-0.0917 -0.03711,-0.18237 -0.01521,-0.20146 0.02191,-0.0192 0.698597,-0.26934 1.503756,-0.55611 l 1.463937,-0.5214 1.482099,0.53219 c 0.815156,0.2927 1.490162,0.55638 1.500024,0.58595 0.02449,0.0734 -0.08471,0.32757 -0.140733,0.32757 -0.02493,0 -0.664697,-0.2228 -1.421796,-0.49514 -0.757107,-0.27233 -1.397631,-0.49515 -1.423393,-0.49515 -0.02575,0 -0.664943,0.22281 -1.420392,0.49515 -0.755458,0.27233 -1.395991,0.49514 -1.423409,0.49514 -0.02743,0 -0.07462,-0.075 -0.104888,-0.16674 z"
         id="path5899"
         sodipodi:nodetypes="cccccccccssccccccccccccccccccccccsscccccccccccccccccccccccccccccccccccscccccscccccccccsssssssccccccssssssscccccccsssssscccccccsssssssccccccscccssssssc" />
    </g>
  </g>
</svg>
